M48
; DRILL file {KiCad 5.1.11} date Sun 21 Nov 2021 12:03:47 PM EET
; FORMAT={-:-/ absolute / metric / decimal}
; #@! TF.CreationDate,2021-11-21T12:03:47+02:00
; #@! TF.GenerationSoftware,Kicad,Pcbnew,5.1.11
; #@! TF.FileFunction,Plated,1,4,PTH
FMAT,2
METRIC
T1C0.300
T2C0.400
T3C0.500
T4C0.600
T5C0.850
T6C1.000
%
G90
G05
T1
X58.55Y-96.15
X61.0Y-83.3
X62.6Y-86.8
X65.05Y-110.15
X70.1Y-98.4
X70.1Y-99.7
X70.1Y-101.1
X70.15Y-94.55
X71.4Y-85.25
X71.5Y-89.8
X71.7Y-80.55
X73.0Y-99.7
X73.6Y-100.2
X73.95Y-91.75
X74.15Y-118.6
X74.175Y-101.825
X74.5Y-102.5
X74.6Y-94.9
X75.112Y-85.737
X75.7Y-62.4
X76.45Y-89.8
X76.5Y-71.45
X76.5Y-94.25
X78.3Y-83.1
X78.55Y-100.7
X78.65Y-99.0
X79.5Y-114.65
X80.65Y-79.1
X81.05Y-70.45
X82.3Y-121.65
X82.45Y-90.8
X83.05Y-68.0
X84.3Y-80.4
X84.3Y-81.7
X84.3Y-83.0
X84.3Y-84.4
X84.75Y-68.75
X84.75Y-73.65
X85.3Y-81.0
X85.3Y-82.3
X85.3Y-83.7
X85.75Y-114.65
X85.9Y-67.4
X86.0Y-93.5
X86.3Y-80.4
X86.3Y-81.7
X86.3Y-83.0
X86.3Y-84.4
X88.0Y-66.4
X88.05Y-85.35
X88.875Y-67.7
X88.9Y-70.9
X89.45Y-63.45
X89.5Y-111.6
X89.65Y-105.0
X89.95Y-77.0
X90.375Y-66.425
X90.8Y-63.45
X90.8Y-123.45
X90.948Y-67.002
X92.15Y-63.45
X92.45Y-72.65
X92.45Y-78.05
X92.45Y-89.0
X92.8Y-102.7
X93.5Y-70.4
X93.53Y-88.97
X93.53Y-96.695
X93.53Y-100.505
X93.54Y-99.235
X93.565Y-97.965
X93.8Y-116.7
X94.75Y-83.1
X94.9Y-109.2
X95.55Y-93.2
X95.95Y-77.0
X96.55Y-66.1
X98.6Y-71.7
X99.85Y-86.85
X100.05Y-54.0
X100.55Y-74.3
X101.0Y-114.7
X101.05Y-108.85
X101.05Y-111.75
X101.1Y-85.55
X102.285Y-100.505
X102.55Y-105.5
X102.6Y-94.5
X103.35Y-91.5
X103.431Y-102.669
X104.303Y-104.997
X105.21Y-106.09
X105.8Y-78.5
X106.093Y-104.157
X107.5Y-89.45
X108.075Y-98.325
X108.479Y-116.029
X108.957Y-99.143
X109.484Y-115.216
X109.85Y-100.8
X110.085Y-101.61
X110.525Y-100.0
X110.625Y-91.775
X111.0Y-80.55
X111.1Y-75.15
X111.32Y-94.805
X111.65Y-107.453
X111.8Y-108.434
X111.833Y-109.533
X112.45Y-119.05
X112.55Y-65.95
X112.895Y-68.48
X112.9Y-94.075
X113.15Y-113.0
X113.42Y-99.23
X113.55Y-94.75
X113.96Y-98.64
X114.165Y-69.335
X114.3Y-114.35
X114.65Y-110.05
X114.7Y-106.1
X114.73Y-101.67
X115.435Y-80.09
X115.65Y-123.65
X115.675Y-103.425
X115.965Y-100.915
X116.705Y-80.92
X116.9Y-103.02
X117.675Y-105.725
X117.75Y-117.4
X118.05Y-66.85
X118.25Y-93.75
X118.895Y-105.805
X118.9Y-66.0
X118.9Y-97.6
X118.9Y-102.85
X119.25Y-82.05
X119.25Y-90.3
X119.471Y-104.157
X119.55Y-95.35
X120.2Y-64.35
X120.2Y-120.5
X121.25Y-54.8
X121.251Y-97.851
X121.75Y-116.95
X122.0Y-122.55
X122.248Y-97.027
X122.505Y-106.045
X122.689Y-116.911
X123.05Y-96.2
X123.337Y-121.362
X123.575Y-106.425
X123.727Y-116.023
X123.743Y-107.357
X123.8Y-95.325
X124.0Y-81.0
X124.15Y-72.65
X124.4Y-58.6
X124.614Y-115.286
X124.7Y-91.75
X125.05Y-66.75
X125.325Y-64.35
X126.15Y-76.65
X126.15Y-120.35
X126.5Y-90.38
X126.75Y-77.35
X126.8Y-59.3
X127.0Y-121.1
X127.765Y-108.285
X128.15Y-59.3
X128.15Y-62.2
X128.55Y-119.1
X128.625Y-122.325
X128.9Y-67.4
X128.9Y-71.3
X129.039Y-109.139
X129.5Y-59.3
X129.9Y-114.6
X130.5Y-99.8
X131.35Y-122.55
X131.4Y-69.4
X131.55Y-76.05
X132.85Y-82.1
X132.85Y-90.3
X132.85Y-105.5
X132.85Y-110.55
X133.25Y-119.5
X133.35Y-57.75
X133.7Y-93.65
X133.8Y-116.8
X133.9Y-63.75
X134.3Y-123.55
X138.6Y-85.5
X138.65Y-78.6
X139.0Y-96.25
X139.7Y-104.7
X139.9Y-72.3
X140.3Y-59.7
X141.69Y-87.66
X141.98Y-101.57
X142.25Y-115.6
X142.85Y-92.35
X142.95Y-88.65
X142.993Y-102.607
X143.0Y-109.3
X144.016Y-103.484
X145.25Y-94.75
X145.75Y-85.1
X147.25Y-61.25
X147.7Y-81.7
X148.05Y-106.85
X150.04Y-89.39
X151.31Y-90.24
X153.85Y-92.35
X153.85Y-94.9
X153.9Y-96.15
X154.4Y-77.4
T2
X68.35Y-107.05
X68.35Y-108.05
X68.35Y-109.05
X69.35Y-107.05
X69.35Y-108.05
X69.35Y-109.05
X70.35Y-107.05
X70.35Y-108.05
X70.35Y-109.05
T4
X115.087Y-93.612
X119.45Y-113.0
X121.58Y-90.65
X136.25Y-99.3
X136.25Y-113.0
X151.735Y-99.315
T5
X98.35Y-63.1
X99.62Y-60.56
X100.89Y-63.1
X102.16Y-60.56
X103.44Y-123.84
X104.71Y-121.3
X105.98Y-123.84
X107.0Y-63.1
X107.25Y-121.3
X108.27Y-60.56
X109.54Y-63.1
X110.81Y-60.56
X115.9Y-63.1
X117.17Y-60.56
X118.44Y-63.1
X119.71Y-60.56
X139.15Y-67.45
X140.42Y-64.91
X141.69Y-67.45
X142.96Y-64.91
X147.5Y-67.45
X148.77Y-64.91
X150.04Y-67.45
X151.31Y-64.91
T6
X82.3Y-103.8
X82.3Y-108.8
T3
G00X123.4Y-124.65
M15
G01X123.4Y-125.35
M16
G05
G00X130.0Y-124.65
M15
G01X130.0Y-125.35
M16
G05
T0
M30
