%TF.GenerationSoftware,KiCad,Pcbnew,5.1.11*%
%TF.CreationDate,2021-11-21T12:03:26+02:00*%
%TF.ProjectId,Electronics,456c6563-7472-46f6-9e69-63732e6b6963,2.2*%
%TF.SameCoordinates,Original*%
%TF.FileFunction,Paste,Top*%
%TF.FilePolarity,Positive*%
%FSLAX46Y46*%
G04 Gerber Fmt 4.6, Leading zero omitted, Abs format (unit mm)*
G04 Created by KiCad (PCBNEW 5.1.11) date 2021-11-21 12:03:26*
%MOMM*%
%LPD*%
G01*
G04 APERTURE LIST*
%ADD10C,0.100000*%
%ADD11R,0.533400X1.461700*%
%ADD12R,1.500000X2.200000*%
%ADD13R,2.700000X0.400000*%
%ADD14R,1.225000X0.400000*%
%ADD15R,1.900000X1.900000*%
%ADD16R,1.600000X1.400000*%
%ADD17R,0.400000X1.350000*%
%ADD18R,1.461700X0.533400*%
%ADD19R,3.000000X3.000000*%
%ADD20R,1.450000X0.599999*%
%ADD21R,0.400000X2.700000*%
%ADD22R,0.400000X1.225000*%
%ADD23R,0.900000X0.600000*%
%ADD24R,0.600000X0.900000*%
%ADD25R,0.600000X1.050000*%
%ADD26R,1.100000X0.600000*%
%ADD27R,1.000000X0.700000*%
%ADD28R,2.790000X0.740000*%
G04 APERTURE END LIST*
D10*
%TO.C,U8*%
G36*
X84125000Y-83951999D02*
G01*
X84125000Y-80948001D01*
X84125922Y-80938637D01*
X84128652Y-80929632D01*
X84133090Y-80921334D01*
X84139059Y-80914059D01*
X84146333Y-80908090D01*
X84154632Y-80903653D01*
X84163636Y-80900923D01*
X84173001Y-80900001D01*
X86476999Y-80900001D01*
X86486364Y-80900923D01*
X86495368Y-80903653D01*
X86503667Y-80908090D01*
X86510941Y-80914059D01*
X86516910Y-80921334D01*
X86521348Y-80929632D01*
X86524078Y-80938637D01*
X86525000Y-80948001D01*
X86525000Y-83951999D01*
X86524078Y-83961363D01*
X86521348Y-83970368D01*
X86516910Y-83978666D01*
X86510941Y-83985941D01*
X86503667Y-83991910D01*
X86495368Y-83996347D01*
X86486364Y-83999077D01*
X86476999Y-83999999D01*
X84173001Y-83999999D01*
X84163636Y-83999077D01*
X84154632Y-83996347D01*
X84146333Y-83991910D01*
X84139059Y-83985941D01*
X84133090Y-83978666D01*
X84128652Y-83970368D01*
X84125922Y-83961363D01*
X84125000Y-83951999D01*
G37*
X84125000Y-83951999D02*
X84125000Y-80948001D01*
X84125922Y-80938637D01*
X84128652Y-80929632D01*
X84133090Y-80921334D01*
X84139059Y-80914059D01*
X84146333Y-80908090D01*
X84154632Y-80903653D01*
X84163636Y-80900923D01*
X84173001Y-80900001D01*
X86476999Y-80900001D01*
X86486364Y-80900923D01*
X86495368Y-80903653D01*
X86503667Y-80908090D01*
X86510941Y-80914059D01*
X86516910Y-80921334D01*
X86521348Y-80929632D01*
X86524078Y-80938637D01*
X86525000Y-80948001D01*
X86525000Y-83951999D01*
X86524078Y-83961363D01*
X86521348Y-83970368D01*
X86516910Y-83978666D01*
X86510941Y-83985941D01*
X86503667Y-83991910D01*
X86495368Y-83996347D01*
X86486364Y-83999077D01*
X86476999Y-83999999D01*
X84173001Y-83999999D01*
X84163636Y-83999077D01*
X84154632Y-83996347D01*
X84146333Y-83991910D01*
X84139059Y-83985941D01*
X84133090Y-83978666D01*
X84128652Y-83970368D01*
X84125922Y-83961363D01*
X84125000Y-83951999D01*
%TD*%
D11*
%TO.C,U2*%
X110355000Y-88924752D03*
X111625000Y-88924752D03*
X112895000Y-88924752D03*
X114165000Y-88924752D03*
X115435000Y-88924752D03*
X116705000Y-88924752D03*
X117975000Y-88924752D03*
X119245000Y-88924752D03*
X119245000Y-83475248D03*
X117975000Y-83475248D03*
X116705000Y-83475248D03*
X115435000Y-83475248D03*
X114165000Y-83475248D03*
X112895000Y-83475248D03*
X111625000Y-83475248D03*
X110355000Y-83475248D03*
%TD*%
D12*
%TO.C,L1*%
X98075000Y-83300000D03*
X91675000Y-83300000D03*
%TD*%
%TO.C,C32*%
G36*
G01*
X113437500Y-96362500D02*
X112962500Y-96362500D01*
G75*
G02*
X112725000Y-96125000I0J237500D01*
G01*
X112725000Y-95525000D01*
G75*
G02*
X112962500Y-95287500I237500J0D01*
G01*
X113437500Y-95287500D01*
G75*
G02*
X113675000Y-95525000I0J-237500D01*
G01*
X113675000Y-96125000D01*
G75*
G02*
X113437500Y-96362500I-237500J0D01*
G01*
G37*
G36*
G01*
X113437500Y-98087500D02*
X112962500Y-98087500D01*
G75*
G02*
X112725000Y-97850000I0J237500D01*
G01*
X112725000Y-97250000D01*
G75*
G02*
X112962500Y-97012500I237500J0D01*
G01*
X113437500Y-97012500D01*
G75*
G02*
X113675000Y-97250000I0J-237500D01*
G01*
X113675000Y-97850000D01*
G75*
G02*
X113437500Y-98087500I-237500J0D01*
G01*
G37*
%TD*%
%TO.C,U5*%
G36*
G01*
X90175000Y-63200000D02*
X90175000Y-64400000D01*
G75*
G02*
X90125000Y-64450000I-50000J0D01*
G01*
X89975000Y-64450000D01*
G75*
G02*
X89925000Y-64400000I0J50000D01*
G01*
X89925000Y-63200000D01*
G75*
G02*
X89975000Y-63150000I50000J0D01*
G01*
X90125000Y-63150000D01*
G75*
G02*
X90175000Y-63200000I0J-50000D01*
G01*
G37*
G36*
G01*
X91175000Y-63200000D02*
X91175000Y-64400000D01*
G75*
G02*
X91125000Y-64450000I-50000J0D01*
G01*
X90975000Y-64450000D01*
G75*
G02*
X90925000Y-64400000I0J50000D01*
G01*
X90925000Y-63200000D01*
G75*
G02*
X90975000Y-63150000I50000J0D01*
G01*
X91125000Y-63150000D01*
G75*
G02*
X91175000Y-63200000I0J-50000D01*
G01*
G37*
G36*
G01*
X90675000Y-63200000D02*
X90675000Y-64400000D01*
G75*
G02*
X90625000Y-64450000I-50000J0D01*
G01*
X90475000Y-64450000D01*
G75*
G02*
X90425000Y-64400000I0J50000D01*
G01*
X90425000Y-63200000D01*
G75*
G02*
X90475000Y-63150000I50000J0D01*
G01*
X90625000Y-63150000D01*
G75*
G02*
X90675000Y-63200000I0J-50000D01*
G01*
G37*
G36*
G01*
X91675000Y-63200000D02*
X91675000Y-64400000D01*
G75*
G02*
X91625000Y-64450000I-50000J0D01*
G01*
X91475000Y-64450000D01*
G75*
G02*
X91425000Y-64400000I0J50000D01*
G01*
X91425000Y-63200000D01*
G75*
G02*
X91475000Y-63150000I50000J0D01*
G01*
X91625000Y-63150000D01*
G75*
G02*
X91675000Y-63200000I0J-50000D01*
G01*
G37*
D13*
X90800000Y-64250000D03*
D14*
X90062500Y-64950000D03*
X91537500Y-64950000D03*
G36*
G01*
X92500000Y-64875000D02*
X92500000Y-65025000D01*
G75*
G02*
X92450000Y-65075000I-50000J0D01*
G01*
X91950000Y-65075000D01*
G75*
G02*
X91900000Y-65025000I0J50000D01*
G01*
X91900000Y-64875000D01*
G75*
G02*
X91950000Y-64825000I50000J0D01*
G01*
X92450000Y-64825000D01*
G75*
G02*
X92500000Y-64875000I0J-50000D01*
G01*
G37*
G36*
G01*
X92500000Y-64175000D02*
X92500000Y-64325000D01*
G75*
G02*
X92450000Y-64375000I-50000J0D01*
G01*
X91950000Y-64375000D01*
G75*
G02*
X91900000Y-64325000I0J50000D01*
G01*
X91900000Y-64175000D01*
G75*
G02*
X91950000Y-64125000I50000J0D01*
G01*
X92450000Y-64125000D01*
G75*
G02*
X92500000Y-64175000I0J-50000D01*
G01*
G37*
G36*
G01*
X89700000Y-64875000D02*
X89700000Y-65025000D01*
G75*
G02*
X89650000Y-65075000I-50000J0D01*
G01*
X89150000Y-65075000D01*
G75*
G02*
X89100000Y-65025000I0J50000D01*
G01*
X89100000Y-64875000D01*
G75*
G02*
X89150000Y-64825000I50000J0D01*
G01*
X89650000Y-64825000D01*
G75*
G02*
X89700000Y-64875000I0J-50000D01*
G01*
G37*
G36*
G01*
X89700000Y-64175000D02*
X89700000Y-64325000D01*
G75*
G02*
X89650000Y-64375000I-50000J0D01*
G01*
X89150000Y-64375000D01*
G75*
G02*
X89100000Y-64325000I0J50000D01*
G01*
X89100000Y-64175000D01*
G75*
G02*
X89150000Y-64125000I50000J0D01*
G01*
X89650000Y-64125000D01*
G75*
G02*
X89700000Y-64175000I0J-50000D01*
G01*
G37*
D13*
X90800000Y-65650000D03*
G36*
G01*
X89700000Y-65575000D02*
X89700000Y-65725000D01*
G75*
G02*
X89650000Y-65775000I-50000J0D01*
G01*
X89150000Y-65775000D01*
G75*
G02*
X89100000Y-65725000I0J50000D01*
G01*
X89100000Y-65575000D01*
G75*
G02*
X89150000Y-65525000I50000J0D01*
G01*
X89650000Y-65525000D01*
G75*
G02*
X89700000Y-65575000I0J-50000D01*
G01*
G37*
G36*
G01*
X92500000Y-65575000D02*
X92500000Y-65725000D01*
G75*
G02*
X92450000Y-65775000I-50000J0D01*
G01*
X91950000Y-65775000D01*
G75*
G02*
X91900000Y-65725000I0J50000D01*
G01*
X91900000Y-65575000D01*
G75*
G02*
X91950000Y-65525000I50000J0D01*
G01*
X92450000Y-65525000D01*
G75*
G02*
X92500000Y-65575000I0J-50000D01*
G01*
G37*
G36*
G01*
X89700000Y-66150000D02*
X89700000Y-66300000D01*
G75*
G02*
X89650000Y-66350000I-50000J0D01*
G01*
X89150000Y-66350000D01*
G75*
G02*
X89100000Y-66300000I0J50000D01*
G01*
X89100000Y-66150000D01*
G75*
G02*
X89150000Y-66100000I50000J0D01*
G01*
X89650000Y-66100000D01*
G75*
G02*
X89700000Y-66150000I0J-50000D01*
G01*
G37*
G36*
G01*
X89700000Y-66650000D02*
X89700000Y-66800000D01*
G75*
G02*
X89650000Y-66850000I-50000J0D01*
G01*
X89150000Y-66850000D01*
G75*
G02*
X89100000Y-66800000I0J50000D01*
G01*
X89100000Y-66650000D01*
G75*
G02*
X89150000Y-66600000I50000J0D01*
G01*
X89650000Y-66600000D01*
G75*
G02*
X89700000Y-66650000I0J-50000D01*
G01*
G37*
G36*
G01*
X89700000Y-67150000D02*
X89700000Y-67300000D01*
G75*
G02*
X89650000Y-67350000I-50000J0D01*
G01*
X89150000Y-67350000D01*
G75*
G02*
X89100000Y-67300000I0J50000D01*
G01*
X89100000Y-67150000D01*
G75*
G02*
X89150000Y-67100000I50000J0D01*
G01*
X89650000Y-67100000D01*
G75*
G02*
X89700000Y-67150000I0J-50000D01*
G01*
G37*
G36*
G01*
X90175000Y-67500000D02*
X90175000Y-68000000D01*
G75*
G02*
X90125000Y-68050000I-50000J0D01*
G01*
X89975000Y-68050000D01*
G75*
G02*
X89925000Y-68000000I0J50000D01*
G01*
X89925000Y-67500000D01*
G75*
G02*
X89975000Y-67450000I50000J0D01*
G01*
X90125000Y-67450000D01*
G75*
G02*
X90175000Y-67500000I0J-50000D01*
G01*
G37*
G36*
G01*
X90675000Y-67500000D02*
X90675000Y-68000000D01*
G75*
G02*
X90625000Y-68050000I-50000J0D01*
G01*
X90475000Y-68050000D01*
G75*
G02*
X90425000Y-68000000I0J50000D01*
G01*
X90425000Y-67500000D01*
G75*
G02*
X90475000Y-67450000I50000J0D01*
G01*
X90625000Y-67450000D01*
G75*
G02*
X90675000Y-67500000I0J-50000D01*
G01*
G37*
G36*
G01*
X91175000Y-67500000D02*
X91175000Y-68000000D01*
G75*
G02*
X91125000Y-68050000I-50000J0D01*
G01*
X90975000Y-68050000D01*
G75*
G02*
X90925000Y-68000000I0J50000D01*
G01*
X90925000Y-67500000D01*
G75*
G02*
X90975000Y-67450000I50000J0D01*
G01*
X91125000Y-67450000D01*
G75*
G02*
X91175000Y-67500000I0J-50000D01*
G01*
G37*
G36*
G01*
X91675000Y-67500000D02*
X91675000Y-68000000D01*
G75*
G02*
X91625000Y-68050000I-50000J0D01*
G01*
X91475000Y-68050000D01*
G75*
G02*
X91425000Y-68000000I0J50000D01*
G01*
X91425000Y-67500000D01*
G75*
G02*
X91475000Y-67450000I50000J0D01*
G01*
X91625000Y-67450000D01*
G75*
G02*
X91675000Y-67500000I0J-50000D01*
G01*
G37*
G36*
G01*
X92500000Y-66150000D02*
X92500000Y-66300000D01*
G75*
G02*
X92450000Y-66350000I-50000J0D01*
G01*
X91950000Y-66350000D01*
G75*
G02*
X91900000Y-66300000I0J50000D01*
G01*
X91900000Y-66150000D01*
G75*
G02*
X91950000Y-66100000I50000J0D01*
G01*
X92450000Y-66100000D01*
G75*
G02*
X92500000Y-66150000I0J-50000D01*
G01*
G37*
G36*
G01*
X92500000Y-66650000D02*
X92500000Y-66800000D01*
G75*
G02*
X92450000Y-66850000I-50000J0D01*
G01*
X91950000Y-66850000D01*
G75*
G02*
X91900000Y-66800000I0J50000D01*
G01*
X91900000Y-66650000D01*
G75*
G02*
X91950000Y-66600000I50000J0D01*
G01*
X92450000Y-66600000D01*
G75*
G02*
X92500000Y-66650000I0J-50000D01*
G01*
G37*
G36*
G01*
X92500000Y-67150000D02*
X92500000Y-67300000D01*
G75*
G02*
X92450000Y-67350000I-50000J0D01*
G01*
X91950000Y-67350000D01*
G75*
G02*
X91900000Y-67300000I0J50000D01*
G01*
X91900000Y-67150000D01*
G75*
G02*
X91950000Y-67100000I50000J0D01*
G01*
X92450000Y-67100000D01*
G75*
G02*
X92500000Y-67150000I0J-50000D01*
G01*
G37*
%TD*%
%TO.C,C13*%
G36*
G01*
X127150000Y-70400000D02*
X127150000Y-68400000D01*
G75*
G02*
X127400000Y-68150000I250000J0D01*
G01*
X130400000Y-68150000D01*
G75*
G02*
X130650000Y-68400000I0J-250000D01*
G01*
X130650000Y-70400000D01*
G75*
G02*
X130400000Y-70650000I-250000J0D01*
G01*
X127400000Y-70650000D01*
G75*
G02*
X127150000Y-70400000I0J250000D01*
G01*
G37*
G36*
G01*
X120650000Y-70400000D02*
X120650000Y-68400000D01*
G75*
G02*
X120900000Y-68150000I250000J0D01*
G01*
X123900000Y-68150000D01*
G75*
G02*
X124150000Y-68400000I0J-250000D01*
G01*
X124150000Y-70400000D01*
G75*
G02*
X123900000Y-70650000I-250000J0D01*
G01*
X120900000Y-70650000D01*
G75*
G02*
X120650000Y-70400000I0J250000D01*
G01*
G37*
%TD*%
D15*
%TO.C,J16*%
X127900000Y-125000000D03*
X125500000Y-125000000D03*
D16*
X129900000Y-122550000D03*
X123500000Y-122550000D03*
D17*
X128000000Y-122325000D03*
X127350000Y-122325000D03*
X126700000Y-122325000D03*
X126050000Y-122325000D03*
X125400000Y-122325000D03*
%TD*%
D10*
%TO.C,U1*%
G36*
X117034455Y-99451630D02*
G01*
X117995342Y-98490743D01*
X118349461Y-98844862D01*
X117388574Y-99805749D01*
X117034455Y-99451630D01*
G37*
G36*
X117600140Y-100017315D02*
G01*
X118561027Y-99056428D01*
X118915146Y-99410547D01*
X117954259Y-100371434D01*
X117600140Y-100017315D01*
G37*
G36*
X118165825Y-100583000D02*
G01*
X119126712Y-99622113D01*
X119480831Y-99976232D01*
X118519944Y-100937119D01*
X118165825Y-100583000D01*
G37*
G36*
X118731511Y-101148686D02*
G01*
X119692398Y-100187799D01*
X120046517Y-100541918D01*
X119085630Y-101502805D01*
X118731511Y-101148686D01*
G37*
G36*
X119297195Y-101714370D02*
G01*
X120258082Y-100753483D01*
X120612201Y-101107602D01*
X119651314Y-102068489D01*
X119297195Y-101714370D01*
G37*
G36*
X119862881Y-102280056D02*
G01*
X120823768Y-101319169D01*
X121177887Y-101673288D01*
X120217000Y-102634175D01*
X119862881Y-102280056D01*
G37*
G36*
X120428567Y-102845742D02*
G01*
X121389454Y-101884855D01*
X121743573Y-102238974D01*
X120782686Y-103199861D01*
X120428567Y-102845742D01*
G37*
G36*
X120994251Y-103411426D02*
G01*
X121955138Y-102450539D01*
X122309257Y-102804658D01*
X121348370Y-103765545D01*
X120994251Y-103411426D01*
G37*
G36*
X121955138Y-105849461D02*
G01*
X120994251Y-104888574D01*
X121348370Y-104534455D01*
X122309257Y-105495342D01*
X121955138Y-105849461D01*
G37*
G36*
X121389453Y-106415146D02*
G01*
X120428566Y-105454259D01*
X120782685Y-105100140D01*
X121743572Y-106061027D01*
X121389453Y-106415146D01*
G37*
G36*
X120823768Y-106980831D02*
G01*
X119862881Y-106019944D01*
X120217000Y-105665825D01*
X121177887Y-106626712D01*
X120823768Y-106980831D01*
G37*
G36*
X120258082Y-107546517D02*
G01*
X119297195Y-106585630D01*
X119651314Y-106231511D01*
X120612201Y-107192398D01*
X120258082Y-107546517D01*
G37*
G36*
X119692398Y-108112201D02*
G01*
X118731511Y-107151314D01*
X119085630Y-106797195D01*
X120046517Y-107758082D01*
X119692398Y-108112201D01*
G37*
G36*
X119126712Y-108677887D02*
G01*
X118165825Y-107717000D01*
X118519944Y-107362881D01*
X119480831Y-108323768D01*
X119126712Y-108677887D01*
G37*
G36*
X118561026Y-109243573D02*
G01*
X117600139Y-108282686D01*
X117954258Y-107928567D01*
X118915145Y-108889454D01*
X118561026Y-109243573D01*
G37*
G36*
X117995342Y-109809257D02*
G01*
X117034455Y-108848370D01*
X117388574Y-108494251D01*
X118349461Y-109455138D01*
X117995342Y-109809257D01*
G37*
G36*
X114950539Y-109455138D02*
G01*
X115911426Y-108494251D01*
X116265545Y-108848370D01*
X115304658Y-109809257D01*
X114950539Y-109455138D01*
G37*
G36*
X114384854Y-108889453D02*
G01*
X115345741Y-107928566D01*
X115699860Y-108282685D01*
X114738973Y-109243572D01*
X114384854Y-108889453D01*
G37*
G36*
X113819169Y-108323768D02*
G01*
X114780056Y-107362881D01*
X115134175Y-107717000D01*
X114173288Y-108677887D01*
X113819169Y-108323768D01*
G37*
G36*
X113253483Y-107758082D02*
G01*
X114214370Y-106797195D01*
X114568489Y-107151314D01*
X113607602Y-108112201D01*
X113253483Y-107758082D01*
G37*
G36*
X112687799Y-107192398D02*
G01*
X113648686Y-106231511D01*
X114002805Y-106585630D01*
X113041918Y-107546517D01*
X112687799Y-107192398D01*
G37*
G36*
X112122113Y-106626712D02*
G01*
X113083000Y-105665825D01*
X113437119Y-106019944D01*
X112476232Y-106980831D01*
X112122113Y-106626712D01*
G37*
G36*
X111556427Y-106061026D02*
G01*
X112517314Y-105100139D01*
X112871433Y-105454258D01*
X111910546Y-106415145D01*
X111556427Y-106061026D01*
G37*
G36*
X110990743Y-105495342D02*
G01*
X111951630Y-104534455D01*
X112305749Y-104888574D01*
X111344862Y-105849461D01*
X110990743Y-105495342D01*
G37*
G36*
X111951630Y-103765545D02*
G01*
X110990743Y-102804658D01*
X111344862Y-102450539D01*
X112305749Y-103411426D01*
X111951630Y-103765545D01*
G37*
G36*
X112517315Y-103199860D02*
G01*
X111556428Y-102238973D01*
X111910547Y-101884854D01*
X112871434Y-102845741D01*
X112517315Y-103199860D01*
G37*
G36*
X113083000Y-102634175D02*
G01*
X112122113Y-101673288D01*
X112476232Y-101319169D01*
X113437119Y-102280056D01*
X113083000Y-102634175D01*
G37*
G36*
X113648686Y-102068489D02*
G01*
X112687799Y-101107602D01*
X113041918Y-100753483D01*
X114002805Y-101714370D01*
X113648686Y-102068489D01*
G37*
G36*
X114214370Y-101502805D02*
G01*
X113253483Y-100541918D01*
X113607602Y-100187799D01*
X114568489Y-101148686D01*
X114214370Y-101502805D01*
G37*
G36*
X114780056Y-100937119D02*
G01*
X113819169Y-99976232D01*
X114173288Y-99622113D01*
X115134175Y-100583000D01*
X114780056Y-100937119D01*
G37*
G36*
X115345742Y-100371433D02*
G01*
X114384855Y-99410546D01*
X114738974Y-99056427D01*
X115699861Y-100017314D01*
X115345742Y-100371433D01*
G37*
G36*
X115911426Y-99805749D02*
G01*
X114950539Y-98844862D01*
X115304658Y-98490743D01*
X116265545Y-99451630D01*
X115911426Y-99805749D01*
G37*
%TD*%
%TO.C,R4*%
G36*
G01*
X102425000Y-110517500D02*
X102425000Y-110042500D01*
G75*
G02*
X102662500Y-109805000I237500J0D01*
G01*
X103162500Y-109805000D01*
G75*
G02*
X103400000Y-110042500I0J-237500D01*
G01*
X103400000Y-110517500D01*
G75*
G02*
X103162500Y-110755000I-237500J0D01*
G01*
X102662500Y-110755000D01*
G75*
G02*
X102425000Y-110517500I0J237500D01*
G01*
G37*
G36*
G01*
X100600000Y-110517500D02*
X100600000Y-110042500D01*
G75*
G02*
X100837500Y-109805000I237500J0D01*
G01*
X101337500Y-109805000D01*
G75*
G02*
X101575000Y-110042500I0J-237500D01*
G01*
X101575000Y-110517500D01*
G75*
G02*
X101337500Y-110755000I-237500J0D01*
G01*
X100837500Y-110755000D01*
G75*
G02*
X100600000Y-110517500I0J237500D01*
G01*
G37*
%TD*%
D18*
%TO.C,U3*%
X95525248Y-103045000D03*
X95525248Y-101775000D03*
X95525248Y-100505000D03*
X95525248Y-99235000D03*
X95525248Y-97965000D03*
X95525248Y-96695000D03*
X95525248Y-95425000D03*
X95525248Y-94155000D03*
X100974752Y-94155000D03*
X100974752Y-95425000D03*
X100974752Y-96695000D03*
X100974752Y-97965000D03*
X100974752Y-99235000D03*
X100974752Y-100505000D03*
X100974752Y-101775000D03*
X100974752Y-103045000D03*
%TD*%
D19*
%TO.C,BAT+*%
X69350000Y-112050000D03*
%TD*%
%TO.C,C31*%
G36*
G01*
X115750000Y-94699999D02*
X115750000Y-96000001D01*
G75*
G02*
X115500001Y-96250000I-249999J0D01*
G01*
X114674999Y-96250000D01*
G75*
G02*
X114425000Y-96000001I0J249999D01*
G01*
X114425000Y-94699999D01*
G75*
G02*
X114674999Y-94450000I249999J0D01*
G01*
X115500001Y-94450000D01*
G75*
G02*
X115750000Y-94699999I0J-249999D01*
G01*
G37*
G36*
G01*
X118875000Y-94699999D02*
X118875000Y-96000001D01*
G75*
G02*
X118625001Y-96250000I-249999J0D01*
G01*
X117799999Y-96250000D01*
G75*
G02*
X117550000Y-96000001I0J249999D01*
G01*
X117550000Y-94699999D01*
G75*
G02*
X117799999Y-94450000I249999J0D01*
G01*
X118625001Y-94450000D01*
G75*
G02*
X118875000Y-94699999I0J-249999D01*
G01*
G37*
%TD*%
%TO.C,C2*%
G36*
G01*
X115000000Y-112349999D02*
X115000000Y-113650001D01*
G75*
G02*
X114750001Y-113900000I-249999J0D01*
G01*
X113924999Y-113900000D01*
G75*
G02*
X113675000Y-113650001I0J249999D01*
G01*
X113675000Y-112349999D01*
G75*
G02*
X113924999Y-112100000I249999J0D01*
G01*
X114750001Y-112100000D01*
G75*
G02*
X115000000Y-112349999I0J-249999D01*
G01*
G37*
G36*
G01*
X118125000Y-112349999D02*
X118125000Y-113650001D01*
G75*
G02*
X117875001Y-113900000I-249999J0D01*
G01*
X117049999Y-113900000D01*
G75*
G02*
X116800000Y-113650001I0J249999D01*
G01*
X116800000Y-112349999D01*
G75*
G02*
X117049999Y-112100000I249999J0D01*
G01*
X117875001Y-112100000D01*
G75*
G02*
X118125000Y-112349999I0J-249999D01*
G01*
G37*
%TD*%
%TO.C,C16*%
G36*
G01*
X72200000Y-90800000D02*
X72200000Y-88800000D01*
G75*
G02*
X72450000Y-88550000I250000J0D01*
G01*
X75450000Y-88550000D01*
G75*
G02*
X75700000Y-88800000I0J-250000D01*
G01*
X75700000Y-90800000D01*
G75*
G02*
X75450000Y-91050000I-250000J0D01*
G01*
X72450000Y-91050000D01*
G75*
G02*
X72200000Y-90800000I0J250000D01*
G01*
G37*
G36*
G01*
X65700000Y-90800000D02*
X65700000Y-88800000D01*
G75*
G02*
X65950000Y-88550000I250000J0D01*
G01*
X68950000Y-88550000D01*
G75*
G02*
X69200000Y-88800000I0J-250000D01*
G01*
X69200000Y-90800000D01*
G75*
G02*
X68950000Y-91050000I-250000J0D01*
G01*
X65950000Y-91050000D01*
G75*
G02*
X65700000Y-90800000I0J250000D01*
G01*
G37*
%TD*%
%TO.C,C10*%
G36*
G01*
X80050000Y-66250000D02*
X82050000Y-66250000D01*
G75*
G02*
X82300000Y-66500000I0J-250000D01*
G01*
X82300000Y-69500000D01*
G75*
G02*
X82050000Y-69750000I-250000J0D01*
G01*
X80050000Y-69750000D01*
G75*
G02*
X79800000Y-69500000I0J250000D01*
G01*
X79800000Y-66500000D01*
G75*
G02*
X80050000Y-66250000I250000J0D01*
G01*
G37*
G36*
G01*
X80050000Y-59750000D02*
X82050000Y-59750000D01*
G75*
G02*
X82300000Y-60000000I0J-250000D01*
G01*
X82300000Y-63000000D01*
G75*
G02*
X82050000Y-63250000I-250000J0D01*
G01*
X80050000Y-63250000D01*
G75*
G02*
X79800000Y-63000000I0J250000D01*
G01*
X79800000Y-60000000D01*
G75*
G02*
X80050000Y-59750000I250000J0D01*
G01*
G37*
%TD*%
%TO.C,C29*%
G36*
G01*
X101575000Y-73475000D02*
X99575000Y-73475000D01*
G75*
G02*
X99325000Y-73225000I0J250000D01*
G01*
X99325000Y-70225000D01*
G75*
G02*
X99575000Y-69975000I250000J0D01*
G01*
X101575000Y-69975000D01*
G75*
G02*
X101825000Y-70225000I0J-250000D01*
G01*
X101825000Y-73225000D01*
G75*
G02*
X101575000Y-73475000I-250000J0D01*
G01*
G37*
G36*
G01*
X101575000Y-79975000D02*
X99575000Y-79975000D01*
G75*
G02*
X99325000Y-79725000I0J250000D01*
G01*
X99325000Y-76725000D01*
G75*
G02*
X99575000Y-76475000I250000J0D01*
G01*
X101575000Y-76475000D01*
G75*
G02*
X101825000Y-76725000I0J-250000D01*
G01*
X101825000Y-79725000D01*
G75*
G02*
X101575000Y-79975000I-250000J0D01*
G01*
G37*
%TD*%
%TO.C,C19*%
G36*
G01*
X85750000Y-79450000D02*
X83750000Y-79450000D01*
G75*
G02*
X83500000Y-79200000I0J250000D01*
G01*
X83500000Y-76200000D01*
G75*
G02*
X83750000Y-75950000I250000J0D01*
G01*
X85750000Y-75950000D01*
G75*
G02*
X86000000Y-76200000I0J-250000D01*
G01*
X86000000Y-79200000D01*
G75*
G02*
X85750000Y-79450000I-250000J0D01*
G01*
G37*
G36*
G01*
X85750000Y-72950000D02*
X83750000Y-72950000D01*
G75*
G02*
X83500000Y-72700000I0J250000D01*
G01*
X83500000Y-69700000D01*
G75*
G02*
X83750000Y-69450000I250000J0D01*
G01*
X85750000Y-69450000D01*
G75*
G02*
X86000000Y-69700000I0J-250000D01*
G01*
X86000000Y-72700000D01*
G75*
G02*
X85750000Y-72950000I-250000J0D01*
G01*
G37*
%TD*%
%TO.C,R3*%
G36*
G01*
X102425000Y-107637500D02*
X102425000Y-107162500D01*
G75*
G02*
X102662500Y-106925000I237500J0D01*
G01*
X103162500Y-106925000D01*
G75*
G02*
X103400000Y-107162500I0J-237500D01*
G01*
X103400000Y-107637500D01*
G75*
G02*
X103162500Y-107875000I-237500J0D01*
G01*
X102662500Y-107875000D01*
G75*
G02*
X102425000Y-107637500I0J237500D01*
G01*
G37*
G36*
G01*
X100600000Y-107637500D02*
X100600000Y-107162500D01*
G75*
G02*
X100837500Y-106925000I237500J0D01*
G01*
X101337500Y-106925000D01*
G75*
G02*
X101575000Y-107162500I0J-237500D01*
G01*
X101575000Y-107637500D01*
G75*
G02*
X101337500Y-107875000I-237500J0D01*
G01*
X100837500Y-107875000D01*
G75*
G02*
X100600000Y-107637500I0J237500D01*
G01*
G37*
%TD*%
%TO.C,R2*%
G36*
G01*
X102362500Y-116387500D02*
X102362500Y-115912500D01*
G75*
G02*
X102600000Y-115675000I237500J0D01*
G01*
X103100000Y-115675000D01*
G75*
G02*
X103337500Y-115912500I0J-237500D01*
G01*
X103337500Y-116387500D01*
G75*
G02*
X103100000Y-116625000I-237500J0D01*
G01*
X102600000Y-116625000D01*
G75*
G02*
X102362500Y-116387500I0J237500D01*
G01*
G37*
G36*
G01*
X100537500Y-116387500D02*
X100537500Y-115912500D01*
G75*
G02*
X100775000Y-115675000I237500J0D01*
G01*
X101275000Y-115675000D01*
G75*
G02*
X101512500Y-115912500I0J-237500D01*
G01*
X101512500Y-116387500D01*
G75*
G02*
X101275000Y-116625000I-237500J0D01*
G01*
X100775000Y-116625000D01*
G75*
G02*
X100537500Y-116387500I0J237500D01*
G01*
G37*
%TD*%
%TO.C,R1*%
G36*
G01*
X102375000Y-113487500D02*
X102375000Y-113012500D01*
G75*
G02*
X102612500Y-112775000I237500J0D01*
G01*
X103112500Y-112775000D01*
G75*
G02*
X103350000Y-113012500I0J-237500D01*
G01*
X103350000Y-113487500D01*
G75*
G02*
X103112500Y-113725000I-237500J0D01*
G01*
X102612500Y-113725000D01*
G75*
G02*
X102375000Y-113487500I0J237500D01*
G01*
G37*
G36*
G01*
X100550000Y-113487500D02*
X100550000Y-113012500D01*
G75*
G02*
X100787500Y-112775000I237500J0D01*
G01*
X101287500Y-112775000D01*
G75*
G02*
X101525000Y-113012500I0J-237500D01*
G01*
X101525000Y-113487500D01*
G75*
G02*
X101287500Y-113725000I-237500J0D01*
G01*
X100787500Y-113725000D01*
G75*
G02*
X100550000Y-113487500I0J237500D01*
G01*
G37*
%TD*%
%TO.C,D4*%
G36*
G01*
X105850000Y-110537500D02*
X105850000Y-110062500D01*
G75*
G02*
X106087500Y-109825000I237500J0D01*
G01*
X106662500Y-109825000D01*
G75*
G02*
X106900000Y-110062500I0J-237500D01*
G01*
X106900000Y-110537500D01*
G75*
G02*
X106662500Y-110775000I-237500J0D01*
G01*
X106087500Y-110775000D01*
G75*
G02*
X105850000Y-110537500I0J237500D01*
G01*
G37*
G36*
G01*
X104100000Y-110537500D02*
X104100000Y-110062500D01*
G75*
G02*
X104337500Y-109825000I237500J0D01*
G01*
X104912500Y-109825000D01*
G75*
G02*
X105150000Y-110062500I0J-237500D01*
G01*
X105150000Y-110537500D01*
G75*
G02*
X104912500Y-110775000I-237500J0D01*
G01*
X104337500Y-110775000D01*
G75*
G02*
X104100000Y-110537500I0J237500D01*
G01*
G37*
%TD*%
%TO.C,D3*%
G36*
G01*
X105850000Y-107637500D02*
X105850000Y-107162500D01*
G75*
G02*
X106087500Y-106925000I237500J0D01*
G01*
X106662500Y-106925000D01*
G75*
G02*
X106900000Y-107162500I0J-237500D01*
G01*
X106900000Y-107637500D01*
G75*
G02*
X106662500Y-107875000I-237500J0D01*
G01*
X106087500Y-107875000D01*
G75*
G02*
X105850000Y-107637500I0J237500D01*
G01*
G37*
G36*
G01*
X104100000Y-107637500D02*
X104100000Y-107162500D01*
G75*
G02*
X104337500Y-106925000I237500J0D01*
G01*
X104912500Y-106925000D01*
G75*
G02*
X105150000Y-107162500I0J-237500D01*
G01*
X105150000Y-107637500D01*
G75*
G02*
X104912500Y-107875000I-237500J0D01*
G01*
X104337500Y-107875000D01*
G75*
G02*
X104100000Y-107637500I0J237500D01*
G01*
G37*
%TD*%
%TO.C,D2*%
G36*
G01*
X105825000Y-116387500D02*
X105825000Y-115912500D01*
G75*
G02*
X106062500Y-115675000I237500J0D01*
G01*
X106637500Y-115675000D01*
G75*
G02*
X106875000Y-115912500I0J-237500D01*
G01*
X106875000Y-116387500D01*
G75*
G02*
X106637500Y-116625000I-237500J0D01*
G01*
X106062500Y-116625000D01*
G75*
G02*
X105825000Y-116387500I0J237500D01*
G01*
G37*
G36*
G01*
X104075000Y-116387500D02*
X104075000Y-115912500D01*
G75*
G02*
X104312500Y-115675000I237500J0D01*
G01*
X104887500Y-115675000D01*
G75*
G02*
X105125000Y-115912500I0J-237500D01*
G01*
X105125000Y-116387500D01*
G75*
G02*
X104887500Y-116625000I-237500J0D01*
G01*
X104312500Y-116625000D01*
G75*
G02*
X104075000Y-116387500I0J237500D01*
G01*
G37*
%TD*%
%TO.C,D1*%
G36*
G01*
X105825000Y-113452501D02*
X105825000Y-112977501D01*
G75*
G02*
X106062500Y-112740001I237500J0D01*
G01*
X106637500Y-112740001D01*
G75*
G02*
X106875000Y-112977501I0J-237500D01*
G01*
X106875000Y-113452501D01*
G75*
G02*
X106637500Y-113690001I-237500J0D01*
G01*
X106062500Y-113690001D01*
G75*
G02*
X105825000Y-113452501I0J237500D01*
G01*
G37*
G36*
G01*
X104075000Y-113452501D02*
X104075000Y-112977501D01*
G75*
G02*
X104312500Y-112740001I237500J0D01*
G01*
X104887500Y-112740001D01*
G75*
G02*
X105125000Y-112977501I0J-237500D01*
G01*
X105125000Y-113452501D01*
G75*
G02*
X104887500Y-113690001I-237500J0D01*
G01*
X104312500Y-113690001D01*
G75*
G02*
X104075000Y-113452501I0J237500D01*
G01*
G37*
%TD*%
%TO.C,C9*%
G36*
G01*
X122500000Y-81987500D02*
X122500000Y-81512500D01*
G75*
G02*
X122737500Y-81275000I237500J0D01*
G01*
X123337500Y-81275000D01*
G75*
G02*
X123575000Y-81512500I0J-237500D01*
G01*
X123575000Y-81987500D01*
G75*
G02*
X123337500Y-82225000I-237500J0D01*
G01*
X122737500Y-82225000D01*
G75*
G02*
X122500000Y-81987500I0J237500D01*
G01*
G37*
G36*
G01*
X124225000Y-81987500D02*
X124225000Y-81512500D01*
G75*
G02*
X124462500Y-81275000I237500J0D01*
G01*
X125062500Y-81275000D01*
G75*
G02*
X125300000Y-81512500I0J-237500D01*
G01*
X125300000Y-81987500D01*
G75*
G02*
X125062500Y-82225000I-237500J0D01*
G01*
X124462500Y-82225000D01*
G75*
G02*
X124225000Y-81987500I0J237500D01*
G01*
G37*
%TD*%
%TO.C,C8*%
G36*
G01*
X94037500Y-102575000D02*
X93562500Y-102575000D01*
G75*
G02*
X93325000Y-102337500I0J237500D01*
G01*
X93325000Y-101737500D01*
G75*
G02*
X93562500Y-101500000I237500J0D01*
G01*
X94037500Y-101500000D01*
G75*
G02*
X94275000Y-101737500I0J-237500D01*
G01*
X94275000Y-102337500D01*
G75*
G02*
X94037500Y-102575000I-237500J0D01*
G01*
G37*
G36*
G01*
X94037500Y-104300000D02*
X93562500Y-104300000D01*
G75*
G02*
X93325000Y-104062500I0J237500D01*
G01*
X93325000Y-103462500D01*
G75*
G02*
X93562500Y-103225000I237500J0D01*
G01*
X94037500Y-103225000D01*
G75*
G02*
X94275000Y-103462500I0J-237500D01*
G01*
X94275000Y-104062500D01*
G75*
G02*
X94037500Y-104300000I-237500J0D01*
G01*
G37*
%TD*%
%TO.C,C7*%
G36*
G01*
X108750000Y-81987500D02*
X108750000Y-81512500D01*
G75*
G02*
X108987500Y-81275000I237500J0D01*
G01*
X109587500Y-81275000D01*
G75*
G02*
X109825000Y-81512500I0J-237500D01*
G01*
X109825000Y-81987500D01*
G75*
G02*
X109587500Y-82225000I-237500J0D01*
G01*
X108987500Y-82225000D01*
G75*
G02*
X108750000Y-81987500I0J237500D01*
G01*
G37*
G36*
G01*
X110475000Y-81987500D02*
X110475000Y-81512500D01*
G75*
G02*
X110712500Y-81275000I237500J0D01*
G01*
X111312500Y-81275000D01*
G75*
G02*
X111550000Y-81512500I0J-237500D01*
G01*
X111550000Y-81987500D01*
G75*
G02*
X111312500Y-82225000I-237500J0D01*
G01*
X110712500Y-82225000D01*
G75*
G02*
X110475000Y-81987500I0J237500D01*
G01*
G37*
%TD*%
%TO.C,C6*%
G36*
G01*
X125250000Y-90412500D02*
X125250000Y-90887500D01*
G75*
G02*
X125012500Y-91125000I-237500J0D01*
G01*
X124412500Y-91125000D01*
G75*
G02*
X124175000Y-90887500I0J237500D01*
G01*
X124175000Y-90412500D01*
G75*
G02*
X124412500Y-90175000I237500J0D01*
G01*
X125012500Y-90175000D01*
G75*
G02*
X125250000Y-90412500I0J-237500D01*
G01*
G37*
G36*
G01*
X123525000Y-90412500D02*
X123525000Y-90887500D01*
G75*
G02*
X123287500Y-91125000I-237500J0D01*
G01*
X122687500Y-91125000D01*
G75*
G02*
X122450000Y-90887500I0J237500D01*
G01*
X122450000Y-90412500D01*
G75*
G02*
X122687500Y-90175000I237500J0D01*
G01*
X123287500Y-90175000D01*
G75*
G02*
X123525000Y-90412500I0J-237500D01*
G01*
G37*
%TD*%
%TO.C,C5*%
G36*
G01*
X102462500Y-103125000D02*
X102937500Y-103125000D01*
G75*
G02*
X103175000Y-103362500I0J-237500D01*
G01*
X103175000Y-103962500D01*
G75*
G02*
X102937500Y-104200000I-237500J0D01*
G01*
X102462500Y-104200000D01*
G75*
G02*
X102225000Y-103962500I0J237500D01*
G01*
X102225000Y-103362500D01*
G75*
G02*
X102462500Y-103125000I237500J0D01*
G01*
G37*
G36*
G01*
X102462500Y-101400000D02*
X102937500Y-101400000D01*
G75*
G02*
X103175000Y-101637500I0J-237500D01*
G01*
X103175000Y-102237500D01*
G75*
G02*
X102937500Y-102475000I-237500J0D01*
G01*
X102462500Y-102475000D01*
G75*
G02*
X102225000Y-102237500I0J237500D01*
G01*
X102225000Y-101637500D01*
G75*
G02*
X102462500Y-101400000I237500J0D01*
G01*
G37*
%TD*%
%TO.C,C4*%
G36*
G01*
X111637500Y-90412500D02*
X111637500Y-90887500D01*
G75*
G02*
X111400000Y-91125000I-237500J0D01*
G01*
X110800000Y-91125000D01*
G75*
G02*
X110562500Y-90887500I0J237500D01*
G01*
X110562500Y-90412500D01*
G75*
G02*
X110800000Y-90175000I237500J0D01*
G01*
X111400000Y-90175000D01*
G75*
G02*
X111637500Y-90412500I0J-237500D01*
G01*
G37*
G36*
G01*
X109912500Y-90412500D02*
X109912500Y-90887500D01*
G75*
G02*
X109675000Y-91125000I-237500J0D01*
G01*
X109075000Y-91125000D01*
G75*
G02*
X108837500Y-90887500I0J237500D01*
G01*
X108837500Y-90412500D01*
G75*
G02*
X109075000Y-90175000I237500J0D01*
G01*
X109675000Y-90175000D01*
G75*
G02*
X109912500Y-90412500I0J-237500D01*
G01*
G37*
%TD*%
%TO.C,C3*%
G36*
G01*
X117125000Y-97487500D02*
X117125000Y-97012500D01*
G75*
G02*
X117362500Y-96775000I237500J0D01*
G01*
X117962500Y-96775000D01*
G75*
G02*
X118200000Y-97012500I0J-237500D01*
G01*
X118200000Y-97487500D01*
G75*
G02*
X117962500Y-97725000I-237500J0D01*
G01*
X117362500Y-97725000D01*
G75*
G02*
X117125000Y-97487500I0J237500D01*
G01*
G37*
G36*
G01*
X115400000Y-97487500D02*
X115400000Y-97012500D01*
G75*
G02*
X115637500Y-96775000I237500J0D01*
G01*
X116237500Y-96775000D01*
G75*
G02*
X116475000Y-97012500I0J-237500D01*
G01*
X116475000Y-97487500D01*
G75*
G02*
X116237500Y-97725000I-237500J0D01*
G01*
X115637500Y-97725000D01*
G75*
G02*
X115400000Y-97487500I0J237500D01*
G01*
G37*
%TD*%
%TO.C,C1*%
G36*
G01*
X116275000Y-110862500D02*
X116275000Y-111337500D01*
G75*
G02*
X116037500Y-111575000I-237500J0D01*
G01*
X115437500Y-111575000D01*
G75*
G02*
X115200000Y-111337500I0J237500D01*
G01*
X115200000Y-110862500D01*
G75*
G02*
X115437500Y-110625000I237500J0D01*
G01*
X116037500Y-110625000D01*
G75*
G02*
X116275000Y-110862500I0J-237500D01*
G01*
G37*
G36*
G01*
X118000000Y-110862500D02*
X118000000Y-111337500D01*
G75*
G02*
X117762500Y-111575000I-237500J0D01*
G01*
X117162500Y-111575000D01*
G75*
G02*
X116925000Y-111337500I0J237500D01*
G01*
X116925000Y-110862500D01*
G75*
G02*
X117162500Y-110625000I237500J0D01*
G01*
X117762500Y-110625000D01*
G75*
G02*
X118000000Y-110862500I0J-237500D01*
G01*
G37*
%TD*%
D20*
%TO.C,U8*%
X88049998Y-80545000D03*
X88049998Y-81815000D03*
X88049998Y-83085000D03*
X88049998Y-84355000D03*
X82599999Y-84355000D03*
X82599999Y-83085000D03*
X82599999Y-81815000D03*
X82599999Y-80545000D03*
%TD*%
%TO.C,D5*%
G36*
G01*
X124525000Y-118937500D02*
X124525000Y-118462500D01*
G75*
G02*
X124762500Y-118225000I237500J0D01*
G01*
X125337500Y-118225000D01*
G75*
G02*
X125575000Y-118462500I0J-237500D01*
G01*
X125575000Y-118937500D01*
G75*
G02*
X125337500Y-119175000I-237500J0D01*
G01*
X124762500Y-119175000D01*
G75*
G02*
X124525000Y-118937500I0J237500D01*
G01*
G37*
G36*
G01*
X122775000Y-118937500D02*
X122775000Y-118462500D01*
G75*
G02*
X123012500Y-118225000I237500J0D01*
G01*
X123587500Y-118225000D01*
G75*
G02*
X123825000Y-118462500I0J-237500D01*
G01*
X123825000Y-118937500D01*
G75*
G02*
X123587500Y-119175000I-237500J0D01*
G01*
X123012500Y-119175000D01*
G75*
G02*
X122775000Y-118937500I0J237500D01*
G01*
G37*
%TD*%
%TO.C,C12*%
G36*
G01*
X91137500Y-62287500D02*
X91137500Y-61812500D01*
G75*
G02*
X91375000Y-61575000I237500J0D01*
G01*
X91975000Y-61575000D01*
G75*
G02*
X92212500Y-61812500I0J-237500D01*
G01*
X92212500Y-62287500D01*
G75*
G02*
X91975000Y-62525000I-237500J0D01*
G01*
X91375000Y-62525000D01*
G75*
G02*
X91137500Y-62287500I0J237500D01*
G01*
G37*
G36*
G01*
X89412500Y-62287500D02*
X89412500Y-61812500D01*
G75*
G02*
X89650000Y-61575000I237500J0D01*
G01*
X90250000Y-61575000D01*
G75*
G02*
X90487500Y-61812500I0J-237500D01*
G01*
X90487500Y-62287500D01*
G75*
G02*
X90250000Y-62525000I-237500J0D01*
G01*
X89650000Y-62525000D01*
G75*
G02*
X89412500Y-62287500I0J237500D01*
G01*
G37*
%TD*%
%TO.C,R13*%
G36*
G01*
X73162500Y-96275000D02*
X73637500Y-96275000D01*
G75*
G02*
X73875000Y-96512500I0J-237500D01*
G01*
X73875000Y-97012500D01*
G75*
G02*
X73637500Y-97250000I-237500J0D01*
G01*
X73162500Y-97250000D01*
G75*
G02*
X72925000Y-97012500I0J237500D01*
G01*
X72925000Y-96512500D01*
G75*
G02*
X73162500Y-96275000I237500J0D01*
G01*
G37*
G36*
G01*
X73162500Y-94450000D02*
X73637500Y-94450000D01*
G75*
G02*
X73875000Y-94687500I0J-237500D01*
G01*
X73875000Y-95187500D01*
G75*
G02*
X73637500Y-95425000I-237500J0D01*
G01*
X73162500Y-95425000D01*
G75*
G02*
X72925000Y-95187500I0J237500D01*
G01*
X72925000Y-94687500D01*
G75*
G02*
X73162500Y-94450000I237500J0D01*
G01*
G37*
%TD*%
D19*
%TO.C,MOT1*%
X88850000Y-59350000D03*
%TD*%
%TO.C,R11*%
G36*
G01*
X76075000Y-100262500D02*
X76075000Y-100737500D01*
G75*
G02*
X75837500Y-100975000I-237500J0D01*
G01*
X75337500Y-100975000D01*
G75*
G02*
X75100000Y-100737500I0J237500D01*
G01*
X75100000Y-100262500D01*
G75*
G02*
X75337500Y-100025000I237500J0D01*
G01*
X75837500Y-100025000D01*
G75*
G02*
X76075000Y-100262500I0J-237500D01*
G01*
G37*
G36*
G01*
X77900000Y-100262500D02*
X77900000Y-100737500D01*
G75*
G02*
X77662500Y-100975000I-237500J0D01*
G01*
X77162500Y-100975000D01*
G75*
G02*
X76925000Y-100737500I0J237500D01*
G01*
X76925000Y-100262500D01*
G75*
G02*
X77162500Y-100025000I237500J0D01*
G01*
X77662500Y-100025000D01*
G75*
G02*
X77900000Y-100262500I0J-237500D01*
G01*
G37*
%TD*%
%TO.C,C23*%
G36*
G01*
X76350000Y-84887500D02*
X76350000Y-84412500D01*
G75*
G02*
X76587500Y-84175000I237500J0D01*
G01*
X77187500Y-84175000D01*
G75*
G02*
X77425000Y-84412500I0J-237500D01*
G01*
X77425000Y-84887500D01*
G75*
G02*
X77187500Y-85125000I-237500J0D01*
G01*
X76587500Y-85125000D01*
G75*
G02*
X76350000Y-84887500I0J237500D01*
G01*
G37*
G36*
G01*
X74625000Y-84887500D02*
X74625000Y-84412500D01*
G75*
G02*
X74862500Y-84175000I237500J0D01*
G01*
X75462500Y-84175000D01*
G75*
G02*
X75700000Y-84412500I0J-237500D01*
G01*
X75700000Y-84887500D01*
G75*
G02*
X75462500Y-85125000I-237500J0D01*
G01*
X74862500Y-85125000D01*
G75*
G02*
X74625000Y-84887500I0J237500D01*
G01*
G37*
%TD*%
%TO.C,C22*%
G36*
G01*
X132062500Y-119325000D02*
X132537500Y-119325000D01*
G75*
G02*
X132775000Y-119562500I0J-237500D01*
G01*
X132775000Y-120162500D01*
G75*
G02*
X132537500Y-120400000I-237500J0D01*
G01*
X132062500Y-120400000D01*
G75*
G02*
X131825000Y-120162500I0J237500D01*
G01*
X131825000Y-119562500D01*
G75*
G02*
X132062500Y-119325000I237500J0D01*
G01*
G37*
G36*
G01*
X132062500Y-117600000D02*
X132537500Y-117600000D01*
G75*
G02*
X132775000Y-117837500I0J-237500D01*
G01*
X132775000Y-118437500D01*
G75*
G02*
X132537500Y-118675000I-237500J0D01*
G01*
X132062500Y-118675000D01*
G75*
G02*
X131825000Y-118437500I0J237500D01*
G01*
X131825000Y-117837500D01*
G75*
G02*
X132062500Y-117600000I237500J0D01*
G01*
G37*
%TD*%
%TO.C,C21*%
G36*
G01*
X80375000Y-83337500D02*
X80375000Y-82862500D01*
G75*
G02*
X80612500Y-82625000I237500J0D01*
G01*
X81212500Y-82625000D01*
G75*
G02*
X81450000Y-82862500I0J-237500D01*
G01*
X81450000Y-83337500D01*
G75*
G02*
X81212500Y-83575000I-237500J0D01*
G01*
X80612500Y-83575000D01*
G75*
G02*
X80375000Y-83337500I0J237500D01*
G01*
G37*
G36*
G01*
X78650000Y-83337500D02*
X78650000Y-82862500D01*
G75*
G02*
X78887500Y-82625000I237500J0D01*
G01*
X79487500Y-82625000D01*
G75*
G02*
X79725000Y-82862500I0J-237500D01*
G01*
X79725000Y-83337500D01*
G75*
G02*
X79487500Y-83575000I-237500J0D01*
G01*
X78887500Y-83575000D01*
G75*
G02*
X78650000Y-83337500I0J237500D01*
G01*
G37*
%TD*%
%TO.C,C20*%
G36*
G01*
X89687500Y-77700000D02*
X90162500Y-77700000D01*
G75*
G02*
X90400000Y-77937500I0J-237500D01*
G01*
X90400000Y-78537500D01*
G75*
G02*
X90162500Y-78775000I-237500J0D01*
G01*
X89687500Y-78775000D01*
G75*
G02*
X89450000Y-78537500I0J237500D01*
G01*
X89450000Y-77937500D01*
G75*
G02*
X89687500Y-77700000I237500J0D01*
G01*
G37*
G36*
G01*
X89687500Y-79425000D02*
X90162500Y-79425000D01*
G75*
G02*
X90400000Y-79662500I0J-237500D01*
G01*
X90400000Y-80262500D01*
G75*
G02*
X90162500Y-80500000I-237500J0D01*
G01*
X89687500Y-80500000D01*
G75*
G02*
X89450000Y-80262500I0J237500D01*
G01*
X89450000Y-79662500D01*
G75*
G02*
X89687500Y-79425000I237500J0D01*
G01*
G37*
%TD*%
%TO.C,R17*%
G36*
G01*
X121637500Y-119175000D02*
X121162500Y-119175000D01*
G75*
G02*
X120925000Y-118937500I0J237500D01*
G01*
X120925000Y-118437500D01*
G75*
G02*
X121162500Y-118200000I237500J0D01*
G01*
X121637500Y-118200000D01*
G75*
G02*
X121875000Y-118437500I0J-237500D01*
G01*
X121875000Y-118937500D01*
G75*
G02*
X121637500Y-119175000I-237500J0D01*
G01*
G37*
G36*
G01*
X121637500Y-121000000D02*
X121162500Y-121000000D01*
G75*
G02*
X120925000Y-120762500I0J237500D01*
G01*
X120925000Y-120262500D01*
G75*
G02*
X121162500Y-120025000I237500J0D01*
G01*
X121637500Y-120025000D01*
G75*
G02*
X121875000Y-120262500I0J-237500D01*
G01*
X121875000Y-120762500D01*
G75*
G02*
X121637500Y-121000000I-237500J0D01*
G01*
G37*
%TD*%
%TO.C,R16*%
G36*
G01*
X75600000Y-82912500D02*
X75600000Y-83387500D01*
G75*
G02*
X75362500Y-83625000I-237500J0D01*
G01*
X74862500Y-83625000D01*
G75*
G02*
X74625000Y-83387500I0J237500D01*
G01*
X74625000Y-82912500D01*
G75*
G02*
X74862500Y-82675000I237500J0D01*
G01*
X75362500Y-82675000D01*
G75*
G02*
X75600000Y-82912500I0J-237500D01*
G01*
G37*
G36*
G01*
X77425000Y-82912500D02*
X77425000Y-83387500D01*
G75*
G02*
X77187500Y-83625000I-237500J0D01*
G01*
X76687500Y-83625000D01*
G75*
G02*
X76450000Y-83387500I0J237500D01*
G01*
X76450000Y-82912500D01*
G75*
G02*
X76687500Y-82675000I237500J0D01*
G01*
X77187500Y-82675000D01*
G75*
G02*
X77425000Y-82912500I0J-237500D01*
G01*
G37*
%TD*%
%TO.C,R15*%
G36*
G01*
X76450000Y-81887500D02*
X76450000Y-81412500D01*
G75*
G02*
X76687500Y-81175000I237500J0D01*
G01*
X77187500Y-81175000D01*
G75*
G02*
X77425000Y-81412500I0J-237500D01*
G01*
X77425000Y-81887500D01*
G75*
G02*
X77187500Y-82125000I-237500J0D01*
G01*
X76687500Y-82125000D01*
G75*
G02*
X76450000Y-81887500I0J237500D01*
G01*
G37*
G36*
G01*
X74625000Y-81887500D02*
X74625000Y-81412500D01*
G75*
G02*
X74862500Y-81175000I237500J0D01*
G01*
X75362500Y-81175000D01*
G75*
G02*
X75600000Y-81412500I0J-237500D01*
G01*
X75600000Y-81887500D01*
G75*
G02*
X75362500Y-82125000I-237500J0D01*
G01*
X74862500Y-82125000D01*
G75*
G02*
X74625000Y-81887500I0J237500D01*
G01*
G37*
%TD*%
%TO.C,R14*%
G36*
G01*
X76450000Y-78887500D02*
X76450000Y-78412500D01*
G75*
G02*
X76687500Y-78175000I237500J0D01*
G01*
X77187500Y-78175000D01*
G75*
G02*
X77425000Y-78412500I0J-237500D01*
G01*
X77425000Y-78887500D01*
G75*
G02*
X77187500Y-79125000I-237500J0D01*
G01*
X76687500Y-79125000D01*
G75*
G02*
X76450000Y-78887500I0J237500D01*
G01*
G37*
G36*
G01*
X74625000Y-78887500D02*
X74625000Y-78412500D01*
G75*
G02*
X74862500Y-78175000I237500J0D01*
G01*
X75362500Y-78175000D01*
G75*
G02*
X75600000Y-78412500I0J-237500D01*
G01*
X75600000Y-78887500D01*
G75*
G02*
X75362500Y-79125000I-237500J0D01*
G01*
X74862500Y-79125000D01*
G75*
G02*
X74625000Y-78887500I0J237500D01*
G01*
G37*
%TD*%
%TO.C,J4*%
X130300000Y-55150000D03*
%TD*%
%TO.C,C28*%
G36*
G01*
X100112500Y-84400000D02*
X99637500Y-84400000D01*
G75*
G02*
X99400000Y-84162500I0J237500D01*
G01*
X99400000Y-83562500D01*
G75*
G02*
X99637500Y-83325000I237500J0D01*
G01*
X100112500Y-83325000D01*
G75*
G02*
X100350000Y-83562500I0J-237500D01*
G01*
X100350000Y-84162500D01*
G75*
G02*
X100112500Y-84400000I-237500J0D01*
G01*
G37*
G36*
G01*
X100112500Y-86125000D02*
X99637500Y-86125000D01*
G75*
G02*
X99400000Y-85887500I0J237500D01*
G01*
X99400000Y-85287500D01*
G75*
G02*
X99637500Y-85050000I237500J0D01*
G01*
X100112500Y-85050000D01*
G75*
G02*
X100350000Y-85287500I0J-237500D01*
G01*
X100350000Y-85887500D01*
G75*
G02*
X100112500Y-86125000I-237500J0D01*
G01*
G37*
%TD*%
%TO.C,R6*%
G36*
G01*
X91837500Y-69575000D02*
X91362500Y-69575000D01*
G75*
G02*
X91125000Y-69337500I0J237500D01*
G01*
X91125000Y-68837500D01*
G75*
G02*
X91362500Y-68600000I237500J0D01*
G01*
X91837500Y-68600000D01*
G75*
G02*
X92075000Y-68837500I0J-237500D01*
G01*
X92075000Y-69337500D01*
G75*
G02*
X91837500Y-69575000I-237500J0D01*
G01*
G37*
G36*
G01*
X91837500Y-71400000D02*
X91362500Y-71400000D01*
G75*
G02*
X91125000Y-71162500I0J237500D01*
G01*
X91125000Y-70662500D01*
G75*
G02*
X91362500Y-70425000I237500J0D01*
G01*
X91837500Y-70425000D01*
G75*
G02*
X92075000Y-70662500I0J-237500D01*
G01*
X92075000Y-71162500D01*
G75*
G02*
X91837500Y-71400000I-237500J0D01*
G01*
G37*
%TD*%
%TO.C,MOT3*%
X65750000Y-98000000D03*
%TD*%
%TO.C,J5*%
X65750000Y-101600000D03*
%TD*%
%TO.C,C15*%
G36*
G01*
X128462500Y-58087500D02*
X128462500Y-57612500D01*
G75*
G02*
X128700000Y-57375000I237500J0D01*
G01*
X129300000Y-57375000D01*
G75*
G02*
X129537500Y-57612500I0J-237500D01*
G01*
X129537500Y-58087500D01*
G75*
G02*
X129300000Y-58325000I-237500J0D01*
G01*
X128700000Y-58325000D01*
G75*
G02*
X128462500Y-58087500I0J237500D01*
G01*
G37*
G36*
G01*
X126737500Y-58087500D02*
X126737500Y-57612500D01*
G75*
G02*
X126975000Y-57375000I237500J0D01*
G01*
X127575000Y-57375000D01*
G75*
G02*
X127812500Y-57612500I0J-237500D01*
G01*
X127812500Y-58087500D01*
G75*
G02*
X127575000Y-58325000I-237500J0D01*
G01*
X126975000Y-58325000D01*
G75*
G02*
X126737500Y-58087500I0J237500D01*
G01*
G37*
%TD*%
%TO.C,BAT-*%
X69350000Y-108050000D03*
%TD*%
%TO.C,C26*%
G36*
G01*
X89687500Y-81037500D02*
X90162500Y-81037500D01*
G75*
G02*
X90400000Y-81275000I0J-237500D01*
G01*
X90400000Y-81875000D01*
G75*
G02*
X90162500Y-82112500I-237500J0D01*
G01*
X89687500Y-82112500D01*
G75*
G02*
X89450000Y-81875000I0J237500D01*
G01*
X89450000Y-81275000D01*
G75*
G02*
X89687500Y-81037500I237500J0D01*
G01*
G37*
G36*
G01*
X89687500Y-82762500D02*
X90162500Y-82762500D01*
G75*
G02*
X90400000Y-83000000I0J-237500D01*
G01*
X90400000Y-83600000D01*
G75*
G02*
X90162500Y-83837500I-237500J0D01*
G01*
X89687500Y-83837500D01*
G75*
G02*
X89450000Y-83600000I0J237500D01*
G01*
X89450000Y-83000000D01*
G75*
G02*
X89687500Y-82762500I237500J0D01*
G01*
G37*
%TD*%
%TO.C,MOT2*%
X125850000Y-55150000D03*
%TD*%
%TO.C,J2*%
X92700000Y-59350000D03*
%TD*%
%TO.C,U7*%
G36*
G01*
X69800000Y-100375000D02*
X71000000Y-100375000D01*
G75*
G02*
X71050000Y-100425000I0J-50000D01*
G01*
X71050000Y-100575000D01*
G75*
G02*
X71000000Y-100625000I-50000J0D01*
G01*
X69800000Y-100625000D01*
G75*
G02*
X69750000Y-100575000I0J50000D01*
G01*
X69750000Y-100425000D01*
G75*
G02*
X69800000Y-100375000I50000J0D01*
G01*
G37*
G36*
G01*
X69800000Y-99375000D02*
X71000000Y-99375000D01*
G75*
G02*
X71050000Y-99425000I0J-50000D01*
G01*
X71050000Y-99575000D01*
G75*
G02*
X71000000Y-99625000I-50000J0D01*
G01*
X69800000Y-99625000D01*
G75*
G02*
X69750000Y-99575000I0J50000D01*
G01*
X69750000Y-99425000D01*
G75*
G02*
X69800000Y-99375000I50000J0D01*
G01*
G37*
G36*
G01*
X69800000Y-99875000D02*
X71000000Y-99875000D01*
G75*
G02*
X71050000Y-99925000I0J-50000D01*
G01*
X71050000Y-100075000D01*
G75*
G02*
X71000000Y-100125000I-50000J0D01*
G01*
X69800000Y-100125000D01*
G75*
G02*
X69750000Y-100075000I0J50000D01*
G01*
X69750000Y-99925000D01*
G75*
G02*
X69800000Y-99875000I50000J0D01*
G01*
G37*
G36*
G01*
X69800000Y-98875000D02*
X71000000Y-98875000D01*
G75*
G02*
X71050000Y-98925000I0J-50000D01*
G01*
X71050000Y-99075000D01*
G75*
G02*
X71000000Y-99125000I-50000J0D01*
G01*
X69800000Y-99125000D01*
G75*
G02*
X69750000Y-99075000I0J50000D01*
G01*
X69750000Y-98925000D01*
G75*
G02*
X69800000Y-98875000I50000J0D01*
G01*
G37*
D21*
X70850000Y-99750000D03*
D22*
X71550000Y-100487500D03*
X71550000Y-99012500D03*
G36*
G01*
X71475000Y-98050000D02*
X71625000Y-98050000D01*
G75*
G02*
X71675000Y-98100000I0J-50000D01*
G01*
X71675000Y-98600000D01*
G75*
G02*
X71625000Y-98650000I-50000J0D01*
G01*
X71475000Y-98650000D01*
G75*
G02*
X71425000Y-98600000I0J50000D01*
G01*
X71425000Y-98100000D01*
G75*
G02*
X71475000Y-98050000I50000J0D01*
G01*
G37*
G36*
G01*
X70775000Y-98050000D02*
X70925000Y-98050000D01*
G75*
G02*
X70975000Y-98100000I0J-50000D01*
G01*
X70975000Y-98600000D01*
G75*
G02*
X70925000Y-98650000I-50000J0D01*
G01*
X70775000Y-98650000D01*
G75*
G02*
X70725000Y-98600000I0J50000D01*
G01*
X70725000Y-98100000D01*
G75*
G02*
X70775000Y-98050000I50000J0D01*
G01*
G37*
G36*
G01*
X71475000Y-100850000D02*
X71625000Y-100850000D01*
G75*
G02*
X71675000Y-100900000I0J-50000D01*
G01*
X71675000Y-101400000D01*
G75*
G02*
X71625000Y-101450000I-50000J0D01*
G01*
X71475000Y-101450000D01*
G75*
G02*
X71425000Y-101400000I0J50000D01*
G01*
X71425000Y-100900000D01*
G75*
G02*
X71475000Y-100850000I50000J0D01*
G01*
G37*
G36*
G01*
X70775000Y-100850000D02*
X70925000Y-100850000D01*
G75*
G02*
X70975000Y-100900000I0J-50000D01*
G01*
X70975000Y-101400000D01*
G75*
G02*
X70925000Y-101450000I-50000J0D01*
G01*
X70775000Y-101450000D01*
G75*
G02*
X70725000Y-101400000I0J50000D01*
G01*
X70725000Y-100900000D01*
G75*
G02*
X70775000Y-100850000I50000J0D01*
G01*
G37*
D21*
X72250000Y-99750000D03*
G36*
G01*
X72175000Y-100850000D02*
X72325000Y-100850000D01*
G75*
G02*
X72375000Y-100900000I0J-50000D01*
G01*
X72375000Y-101400000D01*
G75*
G02*
X72325000Y-101450000I-50000J0D01*
G01*
X72175000Y-101450000D01*
G75*
G02*
X72125000Y-101400000I0J50000D01*
G01*
X72125000Y-100900000D01*
G75*
G02*
X72175000Y-100850000I50000J0D01*
G01*
G37*
G36*
G01*
X72175000Y-98050000D02*
X72325000Y-98050000D01*
G75*
G02*
X72375000Y-98100000I0J-50000D01*
G01*
X72375000Y-98600000D01*
G75*
G02*
X72325000Y-98650000I-50000J0D01*
G01*
X72175000Y-98650000D01*
G75*
G02*
X72125000Y-98600000I0J50000D01*
G01*
X72125000Y-98100000D01*
G75*
G02*
X72175000Y-98050000I50000J0D01*
G01*
G37*
G36*
G01*
X72750000Y-100850000D02*
X72900000Y-100850000D01*
G75*
G02*
X72950000Y-100900000I0J-50000D01*
G01*
X72950000Y-101400000D01*
G75*
G02*
X72900000Y-101450000I-50000J0D01*
G01*
X72750000Y-101450000D01*
G75*
G02*
X72700000Y-101400000I0J50000D01*
G01*
X72700000Y-100900000D01*
G75*
G02*
X72750000Y-100850000I50000J0D01*
G01*
G37*
G36*
G01*
X73250000Y-100850000D02*
X73400000Y-100850000D01*
G75*
G02*
X73450000Y-100900000I0J-50000D01*
G01*
X73450000Y-101400000D01*
G75*
G02*
X73400000Y-101450000I-50000J0D01*
G01*
X73250000Y-101450000D01*
G75*
G02*
X73200000Y-101400000I0J50000D01*
G01*
X73200000Y-100900000D01*
G75*
G02*
X73250000Y-100850000I50000J0D01*
G01*
G37*
G36*
G01*
X73750000Y-100850000D02*
X73900000Y-100850000D01*
G75*
G02*
X73950000Y-100900000I0J-50000D01*
G01*
X73950000Y-101400000D01*
G75*
G02*
X73900000Y-101450000I-50000J0D01*
G01*
X73750000Y-101450000D01*
G75*
G02*
X73700000Y-101400000I0J50000D01*
G01*
X73700000Y-100900000D01*
G75*
G02*
X73750000Y-100850000I50000J0D01*
G01*
G37*
G36*
G01*
X74100000Y-100375000D02*
X74600000Y-100375000D01*
G75*
G02*
X74650000Y-100425000I0J-50000D01*
G01*
X74650000Y-100575000D01*
G75*
G02*
X74600000Y-100625000I-50000J0D01*
G01*
X74100000Y-100625000D01*
G75*
G02*
X74050000Y-100575000I0J50000D01*
G01*
X74050000Y-100425000D01*
G75*
G02*
X74100000Y-100375000I50000J0D01*
G01*
G37*
G36*
G01*
X74100000Y-99875000D02*
X74600000Y-99875000D01*
G75*
G02*
X74650000Y-99925000I0J-50000D01*
G01*
X74650000Y-100075000D01*
G75*
G02*
X74600000Y-100125000I-50000J0D01*
G01*
X74100000Y-100125000D01*
G75*
G02*
X74050000Y-100075000I0J50000D01*
G01*
X74050000Y-99925000D01*
G75*
G02*
X74100000Y-99875000I50000J0D01*
G01*
G37*
G36*
G01*
X74100000Y-99375000D02*
X74600000Y-99375000D01*
G75*
G02*
X74650000Y-99425000I0J-50000D01*
G01*
X74650000Y-99575000D01*
G75*
G02*
X74600000Y-99625000I-50000J0D01*
G01*
X74100000Y-99625000D01*
G75*
G02*
X74050000Y-99575000I0J50000D01*
G01*
X74050000Y-99425000D01*
G75*
G02*
X74100000Y-99375000I50000J0D01*
G01*
G37*
G36*
G01*
X74100000Y-98875000D02*
X74600000Y-98875000D01*
G75*
G02*
X74650000Y-98925000I0J-50000D01*
G01*
X74650000Y-99075000D01*
G75*
G02*
X74600000Y-99125000I-50000J0D01*
G01*
X74100000Y-99125000D01*
G75*
G02*
X74050000Y-99075000I0J50000D01*
G01*
X74050000Y-98925000D01*
G75*
G02*
X74100000Y-98875000I50000J0D01*
G01*
G37*
G36*
G01*
X72750000Y-98050000D02*
X72900000Y-98050000D01*
G75*
G02*
X72950000Y-98100000I0J-50000D01*
G01*
X72950000Y-98600000D01*
G75*
G02*
X72900000Y-98650000I-50000J0D01*
G01*
X72750000Y-98650000D01*
G75*
G02*
X72700000Y-98600000I0J50000D01*
G01*
X72700000Y-98100000D01*
G75*
G02*
X72750000Y-98050000I50000J0D01*
G01*
G37*
G36*
G01*
X73250000Y-98050000D02*
X73400000Y-98050000D01*
G75*
G02*
X73450000Y-98100000I0J-50000D01*
G01*
X73450000Y-98600000D01*
G75*
G02*
X73400000Y-98650000I-50000J0D01*
G01*
X73250000Y-98650000D01*
G75*
G02*
X73200000Y-98600000I0J50000D01*
G01*
X73200000Y-98100000D01*
G75*
G02*
X73250000Y-98050000I50000J0D01*
G01*
G37*
G36*
G01*
X73750000Y-98050000D02*
X73900000Y-98050000D01*
G75*
G02*
X73950000Y-98100000I0J-50000D01*
G01*
X73950000Y-98600000D01*
G75*
G02*
X73900000Y-98650000I-50000J0D01*
G01*
X73750000Y-98650000D01*
G75*
G02*
X73700000Y-98600000I0J50000D01*
G01*
X73700000Y-98100000D01*
G75*
G02*
X73750000Y-98050000I50000J0D01*
G01*
G37*
%TD*%
%TO.C,U6*%
G36*
G01*
X127525000Y-59000000D02*
X127525000Y-60200000D01*
G75*
G02*
X127475000Y-60250000I-50000J0D01*
G01*
X127325000Y-60250000D01*
G75*
G02*
X127275000Y-60200000I0J50000D01*
G01*
X127275000Y-59000000D01*
G75*
G02*
X127325000Y-58950000I50000J0D01*
G01*
X127475000Y-58950000D01*
G75*
G02*
X127525000Y-59000000I0J-50000D01*
G01*
G37*
G36*
G01*
X128525000Y-59000000D02*
X128525000Y-60200000D01*
G75*
G02*
X128475000Y-60250000I-50000J0D01*
G01*
X128325000Y-60250000D01*
G75*
G02*
X128275000Y-60200000I0J50000D01*
G01*
X128275000Y-59000000D01*
G75*
G02*
X128325000Y-58950000I50000J0D01*
G01*
X128475000Y-58950000D01*
G75*
G02*
X128525000Y-59000000I0J-50000D01*
G01*
G37*
G36*
G01*
X128025000Y-59000000D02*
X128025000Y-60200000D01*
G75*
G02*
X127975000Y-60250000I-50000J0D01*
G01*
X127825000Y-60250000D01*
G75*
G02*
X127775000Y-60200000I0J50000D01*
G01*
X127775000Y-59000000D01*
G75*
G02*
X127825000Y-58950000I50000J0D01*
G01*
X127975000Y-58950000D01*
G75*
G02*
X128025000Y-59000000I0J-50000D01*
G01*
G37*
G36*
G01*
X129025000Y-59000000D02*
X129025000Y-60200000D01*
G75*
G02*
X128975000Y-60250000I-50000J0D01*
G01*
X128825000Y-60250000D01*
G75*
G02*
X128775000Y-60200000I0J50000D01*
G01*
X128775000Y-59000000D01*
G75*
G02*
X128825000Y-58950000I50000J0D01*
G01*
X128975000Y-58950000D01*
G75*
G02*
X129025000Y-59000000I0J-50000D01*
G01*
G37*
D13*
X128150000Y-60050000D03*
D14*
X127412500Y-60750000D03*
X128887500Y-60750000D03*
G36*
G01*
X129850000Y-60675000D02*
X129850000Y-60825000D01*
G75*
G02*
X129800000Y-60875000I-50000J0D01*
G01*
X129300000Y-60875000D01*
G75*
G02*
X129250000Y-60825000I0J50000D01*
G01*
X129250000Y-60675000D01*
G75*
G02*
X129300000Y-60625000I50000J0D01*
G01*
X129800000Y-60625000D01*
G75*
G02*
X129850000Y-60675000I0J-50000D01*
G01*
G37*
G36*
G01*
X129850000Y-59975000D02*
X129850000Y-60125000D01*
G75*
G02*
X129800000Y-60175000I-50000J0D01*
G01*
X129300000Y-60175000D01*
G75*
G02*
X129250000Y-60125000I0J50000D01*
G01*
X129250000Y-59975000D01*
G75*
G02*
X129300000Y-59925000I50000J0D01*
G01*
X129800000Y-59925000D01*
G75*
G02*
X129850000Y-59975000I0J-50000D01*
G01*
G37*
G36*
G01*
X127050000Y-60675000D02*
X127050000Y-60825000D01*
G75*
G02*
X127000000Y-60875000I-50000J0D01*
G01*
X126500000Y-60875000D01*
G75*
G02*
X126450000Y-60825000I0J50000D01*
G01*
X126450000Y-60675000D01*
G75*
G02*
X126500000Y-60625000I50000J0D01*
G01*
X127000000Y-60625000D01*
G75*
G02*
X127050000Y-60675000I0J-50000D01*
G01*
G37*
G36*
G01*
X127050000Y-59975000D02*
X127050000Y-60125000D01*
G75*
G02*
X127000000Y-60175000I-50000J0D01*
G01*
X126500000Y-60175000D01*
G75*
G02*
X126450000Y-60125000I0J50000D01*
G01*
X126450000Y-59975000D01*
G75*
G02*
X126500000Y-59925000I50000J0D01*
G01*
X127000000Y-59925000D01*
G75*
G02*
X127050000Y-59975000I0J-50000D01*
G01*
G37*
D13*
X128150000Y-61450000D03*
G36*
G01*
X127050000Y-61375000D02*
X127050000Y-61525000D01*
G75*
G02*
X127000000Y-61575000I-50000J0D01*
G01*
X126500000Y-61575000D01*
G75*
G02*
X126450000Y-61525000I0J50000D01*
G01*
X126450000Y-61375000D01*
G75*
G02*
X126500000Y-61325000I50000J0D01*
G01*
X127000000Y-61325000D01*
G75*
G02*
X127050000Y-61375000I0J-50000D01*
G01*
G37*
G36*
G01*
X129850000Y-61375000D02*
X129850000Y-61525000D01*
G75*
G02*
X129800000Y-61575000I-50000J0D01*
G01*
X129300000Y-61575000D01*
G75*
G02*
X129250000Y-61525000I0J50000D01*
G01*
X129250000Y-61375000D01*
G75*
G02*
X129300000Y-61325000I50000J0D01*
G01*
X129800000Y-61325000D01*
G75*
G02*
X129850000Y-61375000I0J-50000D01*
G01*
G37*
G36*
G01*
X127050000Y-61950000D02*
X127050000Y-62100000D01*
G75*
G02*
X127000000Y-62150000I-50000J0D01*
G01*
X126500000Y-62150000D01*
G75*
G02*
X126450000Y-62100000I0J50000D01*
G01*
X126450000Y-61950000D01*
G75*
G02*
X126500000Y-61900000I50000J0D01*
G01*
X127000000Y-61900000D01*
G75*
G02*
X127050000Y-61950000I0J-50000D01*
G01*
G37*
G36*
G01*
X127050000Y-62450000D02*
X127050000Y-62600000D01*
G75*
G02*
X127000000Y-62650000I-50000J0D01*
G01*
X126500000Y-62650000D01*
G75*
G02*
X126450000Y-62600000I0J50000D01*
G01*
X126450000Y-62450000D01*
G75*
G02*
X126500000Y-62400000I50000J0D01*
G01*
X127000000Y-62400000D01*
G75*
G02*
X127050000Y-62450000I0J-50000D01*
G01*
G37*
G36*
G01*
X127050000Y-62950000D02*
X127050000Y-63100000D01*
G75*
G02*
X127000000Y-63150000I-50000J0D01*
G01*
X126500000Y-63150000D01*
G75*
G02*
X126450000Y-63100000I0J50000D01*
G01*
X126450000Y-62950000D01*
G75*
G02*
X126500000Y-62900000I50000J0D01*
G01*
X127000000Y-62900000D01*
G75*
G02*
X127050000Y-62950000I0J-50000D01*
G01*
G37*
G36*
G01*
X127525000Y-63300000D02*
X127525000Y-63800000D01*
G75*
G02*
X127475000Y-63850000I-50000J0D01*
G01*
X127325000Y-63850000D01*
G75*
G02*
X127275000Y-63800000I0J50000D01*
G01*
X127275000Y-63300000D01*
G75*
G02*
X127325000Y-63250000I50000J0D01*
G01*
X127475000Y-63250000D01*
G75*
G02*
X127525000Y-63300000I0J-50000D01*
G01*
G37*
G36*
G01*
X128025000Y-63300000D02*
X128025000Y-63800000D01*
G75*
G02*
X127975000Y-63850000I-50000J0D01*
G01*
X127825000Y-63850000D01*
G75*
G02*
X127775000Y-63800000I0J50000D01*
G01*
X127775000Y-63300000D01*
G75*
G02*
X127825000Y-63250000I50000J0D01*
G01*
X127975000Y-63250000D01*
G75*
G02*
X128025000Y-63300000I0J-50000D01*
G01*
G37*
G36*
G01*
X128525000Y-63300000D02*
X128525000Y-63800000D01*
G75*
G02*
X128475000Y-63850000I-50000J0D01*
G01*
X128325000Y-63850000D01*
G75*
G02*
X128275000Y-63800000I0J50000D01*
G01*
X128275000Y-63300000D01*
G75*
G02*
X128325000Y-63250000I50000J0D01*
G01*
X128475000Y-63250000D01*
G75*
G02*
X128525000Y-63300000I0J-50000D01*
G01*
G37*
G36*
G01*
X129025000Y-63300000D02*
X129025000Y-63800000D01*
G75*
G02*
X128975000Y-63850000I-50000J0D01*
G01*
X128825000Y-63850000D01*
G75*
G02*
X128775000Y-63800000I0J50000D01*
G01*
X128775000Y-63300000D01*
G75*
G02*
X128825000Y-63250000I50000J0D01*
G01*
X128975000Y-63250000D01*
G75*
G02*
X129025000Y-63300000I0J-50000D01*
G01*
G37*
G36*
G01*
X129850000Y-61950000D02*
X129850000Y-62100000D01*
G75*
G02*
X129800000Y-62150000I-50000J0D01*
G01*
X129300000Y-62150000D01*
G75*
G02*
X129250000Y-62100000I0J50000D01*
G01*
X129250000Y-61950000D01*
G75*
G02*
X129300000Y-61900000I50000J0D01*
G01*
X129800000Y-61900000D01*
G75*
G02*
X129850000Y-61950000I0J-50000D01*
G01*
G37*
G36*
G01*
X129850000Y-62450000D02*
X129850000Y-62600000D01*
G75*
G02*
X129800000Y-62650000I-50000J0D01*
G01*
X129300000Y-62650000D01*
G75*
G02*
X129250000Y-62600000I0J50000D01*
G01*
X129250000Y-62450000D01*
G75*
G02*
X129300000Y-62400000I50000J0D01*
G01*
X129800000Y-62400000D01*
G75*
G02*
X129850000Y-62450000I0J-50000D01*
G01*
G37*
G36*
G01*
X129850000Y-62950000D02*
X129850000Y-63100000D01*
G75*
G02*
X129800000Y-63150000I-50000J0D01*
G01*
X129300000Y-63150000D01*
G75*
G02*
X129250000Y-63100000I0J50000D01*
G01*
X129250000Y-62950000D01*
G75*
G02*
X129300000Y-62900000I50000J0D01*
G01*
X129800000Y-62900000D01*
G75*
G02*
X129850000Y-62950000I0J-50000D01*
G01*
G37*
%TD*%
D23*
%TO.C,Q1*%
X74150000Y-109935000D03*
D24*
X73550000Y-112635000D03*
D25*
X72240000Y-106915000D03*
X73510000Y-106915000D03*
X76060000Y-106915000D03*
X74790000Y-106915000D03*
D24*
X74750000Y-112635000D03*
X72270000Y-112635000D03*
X76030000Y-112635000D03*
D23*
X74150000Y-109085000D03*
X74150000Y-110785000D03*
X73000000Y-110785000D03*
X73000000Y-109085000D03*
X73000000Y-109935000D03*
X75300000Y-110785000D03*
X75300000Y-109085000D03*
X75300000Y-109935000D03*
%TD*%
%TO.C,C17*%
G36*
G01*
X71325000Y-95937500D02*
X71325000Y-95462500D01*
G75*
G02*
X71562500Y-95225000I237500J0D01*
G01*
X72162500Y-95225000D01*
G75*
G02*
X72400000Y-95462500I0J-237500D01*
G01*
X72400000Y-95937500D01*
G75*
G02*
X72162500Y-96175000I-237500J0D01*
G01*
X71562500Y-96175000D01*
G75*
G02*
X71325000Y-95937500I0J237500D01*
G01*
G37*
G36*
G01*
X69600000Y-95937500D02*
X69600000Y-95462500D01*
G75*
G02*
X69837500Y-95225000I237500J0D01*
G01*
X70437500Y-95225000D01*
G75*
G02*
X70675000Y-95462500I0J-237500D01*
G01*
X70675000Y-95937500D01*
G75*
G02*
X70437500Y-96175000I-237500J0D01*
G01*
X69837500Y-96175000D01*
G75*
G02*
X69600000Y-95937500I0J237500D01*
G01*
G37*
%TD*%
%TO.C,C14*%
G36*
G01*
X124162500Y-59050000D02*
X124637500Y-59050000D01*
G75*
G02*
X124875000Y-59287500I0J-237500D01*
G01*
X124875000Y-59887500D01*
G75*
G02*
X124637500Y-60125000I-237500J0D01*
G01*
X124162500Y-60125000D01*
G75*
G02*
X123925000Y-59887500I0J237500D01*
G01*
X123925000Y-59287500D01*
G75*
G02*
X124162500Y-59050000I237500J0D01*
G01*
G37*
G36*
G01*
X124162500Y-60775000D02*
X124637500Y-60775000D01*
G75*
G02*
X124875000Y-61012500I0J-237500D01*
G01*
X124875000Y-61612500D01*
G75*
G02*
X124637500Y-61850000I-237500J0D01*
G01*
X124162500Y-61850000D01*
G75*
G02*
X123925000Y-61612500I0J237500D01*
G01*
X123925000Y-61012500D01*
G75*
G02*
X124162500Y-60775000I237500J0D01*
G01*
G37*
%TD*%
%TO.C,C11*%
G36*
G01*
X87137500Y-67937500D02*
X86662500Y-67937500D01*
G75*
G02*
X86425000Y-67700000I0J237500D01*
G01*
X86425000Y-67100000D01*
G75*
G02*
X86662500Y-66862500I237500J0D01*
G01*
X87137500Y-66862500D01*
G75*
G02*
X87375000Y-67100000I0J-237500D01*
G01*
X87375000Y-67700000D01*
G75*
G02*
X87137500Y-67937500I-237500J0D01*
G01*
G37*
G36*
G01*
X87137500Y-66212500D02*
X86662500Y-66212500D01*
G75*
G02*
X86425000Y-65975000I0J237500D01*
G01*
X86425000Y-65375000D01*
G75*
G02*
X86662500Y-65137500I237500J0D01*
G01*
X87137500Y-65137500D01*
G75*
G02*
X87375000Y-65375000I0J-237500D01*
G01*
X87375000Y-65975000D01*
G75*
G02*
X87137500Y-66212500I-237500J0D01*
G01*
G37*
%TD*%
%TO.C,C30*%
G36*
G01*
X124525000Y-120637500D02*
X124525000Y-120162500D01*
G75*
G02*
X124762500Y-119925000I237500J0D01*
G01*
X125362500Y-119925000D01*
G75*
G02*
X125600000Y-120162500I0J-237500D01*
G01*
X125600000Y-120637500D01*
G75*
G02*
X125362500Y-120875000I-237500J0D01*
G01*
X124762500Y-120875000D01*
G75*
G02*
X124525000Y-120637500I0J237500D01*
G01*
G37*
G36*
G01*
X122800000Y-120637500D02*
X122800000Y-120162500D01*
G75*
G02*
X123037500Y-119925000I237500J0D01*
G01*
X123637500Y-119925000D01*
G75*
G02*
X123875000Y-120162500I0J-237500D01*
G01*
X123875000Y-120637500D01*
G75*
G02*
X123637500Y-120875000I-237500J0D01*
G01*
X123037500Y-120875000D01*
G75*
G02*
X122800000Y-120637500I0J237500D01*
G01*
G37*
%TD*%
%TO.C,R12*%
G36*
G01*
X76075000Y-98762500D02*
X76075000Y-99237500D01*
G75*
G02*
X75837500Y-99475000I-237500J0D01*
G01*
X75337500Y-99475000D01*
G75*
G02*
X75100000Y-99237500I0J237500D01*
G01*
X75100000Y-98762500D01*
G75*
G02*
X75337500Y-98525000I237500J0D01*
G01*
X75837500Y-98525000D01*
G75*
G02*
X76075000Y-98762500I0J-237500D01*
G01*
G37*
G36*
G01*
X77900000Y-98762500D02*
X77900000Y-99237500D01*
G75*
G02*
X77662500Y-99475000I-237500J0D01*
G01*
X77162500Y-99475000D01*
G75*
G02*
X76925000Y-99237500I0J237500D01*
G01*
X76925000Y-98762500D01*
G75*
G02*
X77162500Y-98525000I237500J0D01*
G01*
X77662500Y-98525000D01*
G75*
G02*
X77900000Y-98762500I0J-237500D01*
G01*
G37*
%TD*%
%TO.C,R7*%
G36*
G01*
X93737500Y-67875000D02*
X93262500Y-67875000D01*
G75*
G02*
X93025000Y-67637500I0J237500D01*
G01*
X93025000Y-67137500D01*
G75*
G02*
X93262500Y-66900000I237500J0D01*
G01*
X93737500Y-66900000D01*
G75*
G02*
X93975000Y-67137500I0J-237500D01*
G01*
X93975000Y-67637500D01*
G75*
G02*
X93737500Y-67875000I-237500J0D01*
G01*
G37*
G36*
G01*
X93737500Y-69700000D02*
X93262500Y-69700000D01*
G75*
G02*
X93025000Y-69462500I0J237500D01*
G01*
X93025000Y-68962500D01*
G75*
G02*
X93262500Y-68725000I237500J0D01*
G01*
X93737500Y-68725000D01*
G75*
G02*
X93975000Y-68962500I0J-237500D01*
G01*
X93975000Y-69462500D01*
G75*
G02*
X93737500Y-69700000I-237500J0D01*
G01*
G37*
%TD*%
%TO.C,R5*%
G36*
G01*
X90137500Y-69587500D02*
X89662500Y-69587500D01*
G75*
G02*
X89425000Y-69350000I0J237500D01*
G01*
X89425000Y-68850000D01*
G75*
G02*
X89662500Y-68612500I237500J0D01*
G01*
X90137500Y-68612500D01*
G75*
G02*
X90375000Y-68850000I0J-237500D01*
G01*
X90375000Y-69350000D01*
G75*
G02*
X90137500Y-69587500I-237500J0D01*
G01*
G37*
G36*
G01*
X90137500Y-71412500D02*
X89662500Y-71412500D01*
G75*
G02*
X89425000Y-71175000I0J237500D01*
G01*
X89425000Y-70675000D01*
G75*
G02*
X89662500Y-70437500I237500J0D01*
G01*
X90137500Y-70437500D01*
G75*
G02*
X90375000Y-70675000I0J-237500D01*
G01*
X90375000Y-71175000D01*
G75*
G02*
X90137500Y-71412500I-237500J0D01*
G01*
G37*
%TD*%
%TO.C,R10*%
G36*
G01*
X131275000Y-62012500D02*
X131275000Y-62487500D01*
G75*
G02*
X131037500Y-62725000I-237500J0D01*
G01*
X130537500Y-62725000D01*
G75*
G02*
X130300000Y-62487500I0J237500D01*
G01*
X130300000Y-62012500D01*
G75*
G02*
X130537500Y-61775000I237500J0D01*
G01*
X131037500Y-61775000D01*
G75*
G02*
X131275000Y-62012500I0J-237500D01*
G01*
G37*
G36*
G01*
X133100000Y-62012500D02*
X133100000Y-62487500D01*
G75*
G02*
X132862500Y-62725000I-237500J0D01*
G01*
X132362500Y-62725000D01*
G75*
G02*
X132125000Y-62487500I0J237500D01*
G01*
X132125000Y-62012500D01*
G75*
G02*
X132362500Y-61775000I237500J0D01*
G01*
X132862500Y-61775000D01*
G75*
G02*
X133100000Y-62012500I0J-237500D01*
G01*
G37*
%TD*%
%TO.C,C27*%
G36*
G01*
X75700000Y-79912500D02*
X75700000Y-80387500D01*
G75*
G02*
X75462500Y-80625000I-237500J0D01*
G01*
X74862500Y-80625000D01*
G75*
G02*
X74625000Y-80387500I0J237500D01*
G01*
X74625000Y-79912500D01*
G75*
G02*
X74862500Y-79675000I237500J0D01*
G01*
X75462500Y-79675000D01*
G75*
G02*
X75700000Y-79912500I0J-237500D01*
G01*
G37*
G36*
G01*
X77425000Y-79912500D02*
X77425000Y-80387500D01*
G75*
G02*
X77187500Y-80625000I-237500J0D01*
G01*
X76587500Y-80625000D01*
G75*
G02*
X76350000Y-80387500I0J237500D01*
G01*
X76350000Y-79912500D01*
G75*
G02*
X76587500Y-79675000I237500J0D01*
G01*
X77187500Y-79675000D01*
G75*
G02*
X77425000Y-79912500I0J-237500D01*
G01*
G37*
%TD*%
%TO.C,R9*%
G36*
G01*
X131275000Y-63512500D02*
X131275000Y-63987500D01*
G75*
G02*
X131037500Y-64225000I-237500J0D01*
G01*
X130537500Y-64225000D01*
G75*
G02*
X130300000Y-63987500I0J237500D01*
G01*
X130300000Y-63512500D01*
G75*
G02*
X130537500Y-63275000I237500J0D01*
G01*
X131037500Y-63275000D01*
G75*
G02*
X131275000Y-63512500I0J-237500D01*
G01*
G37*
G36*
G01*
X133100000Y-63512500D02*
X133100000Y-63987500D01*
G75*
G02*
X132862500Y-64225000I-237500J0D01*
G01*
X132362500Y-64225000D01*
G75*
G02*
X132125000Y-63987500I0J237500D01*
G01*
X132125000Y-63512500D01*
G75*
G02*
X132362500Y-63275000I237500J0D01*
G01*
X132862500Y-63275000D01*
G75*
G02*
X133100000Y-63512500I0J-237500D01*
G01*
G37*
%TD*%
%TO.C,C24*%
G36*
G01*
X135575000Y-116562500D02*
X135575000Y-117037500D01*
G75*
G02*
X135337500Y-117275000I-237500J0D01*
G01*
X134737500Y-117275000D01*
G75*
G02*
X134500000Y-117037500I0J237500D01*
G01*
X134500000Y-116562500D01*
G75*
G02*
X134737500Y-116325000I237500J0D01*
G01*
X135337500Y-116325000D01*
G75*
G02*
X135575000Y-116562500I0J-237500D01*
G01*
G37*
G36*
G01*
X137300000Y-116562500D02*
X137300000Y-117037500D01*
G75*
G02*
X137062500Y-117275000I-237500J0D01*
G01*
X136462500Y-117275000D01*
G75*
G02*
X136225000Y-117037500I0J237500D01*
G01*
X136225000Y-116562500D01*
G75*
G02*
X136462500Y-116325000I237500J0D01*
G01*
X137062500Y-116325000D01*
G75*
G02*
X137300000Y-116562500I0J-237500D01*
G01*
G37*
%TD*%
D26*
%TO.C,U10*%
X127500000Y-120050000D03*
X130100000Y-120050000D03*
X127500000Y-119100000D03*
X127500000Y-118150000D03*
X130100000Y-118150000D03*
%TD*%
D27*
%TO.C,U9*%
X134400000Y-120450000D03*
X136800000Y-120450000D03*
X134400000Y-119500000D03*
X134400000Y-118550000D03*
X136800000Y-118550000D03*
%TD*%
D28*
%TO.C,Debug*%
X147665000Y-96170000D03*
X151735000Y-96170000D03*
X147665000Y-97440000D03*
X151735000Y-97440000D03*
X147665000Y-92360000D03*
X151735000Y-92360000D03*
X147665000Y-93630000D03*
X151735000Y-93630000D03*
X147665000Y-94900000D03*
X151735000Y-94900000D03*
%TD*%
D11*
%TO.C,U4*%
X123955000Y-88924752D03*
X125225000Y-88924752D03*
X126495000Y-88924752D03*
X127765000Y-88924752D03*
X129035000Y-88924752D03*
X130305000Y-88924752D03*
X131575000Y-88924752D03*
X132845000Y-88924752D03*
X132845000Y-83475248D03*
X131575000Y-83475248D03*
X130305000Y-83475248D03*
X129035000Y-83475248D03*
X127765000Y-83475248D03*
X126495000Y-83475248D03*
X125225000Y-83475248D03*
X123955000Y-83475248D03*
%TD*%
%TO.C,C18*%
G36*
G01*
X68687500Y-99425000D02*
X68212500Y-99425000D01*
G75*
G02*
X67975000Y-99187500I0J237500D01*
G01*
X67975000Y-98587500D01*
G75*
G02*
X68212500Y-98350000I237500J0D01*
G01*
X68687500Y-98350000D01*
G75*
G02*
X68925000Y-98587500I0J-237500D01*
G01*
X68925000Y-99187500D01*
G75*
G02*
X68687500Y-99425000I-237500J0D01*
G01*
G37*
G36*
G01*
X68687500Y-101150000D02*
X68212500Y-101150000D01*
G75*
G02*
X67975000Y-100912500I0J237500D01*
G01*
X67975000Y-100312500D01*
G75*
G02*
X68212500Y-100075000I237500J0D01*
G01*
X68687500Y-100075000D01*
G75*
G02*
X68925000Y-100312500I0J-237500D01*
G01*
X68925000Y-100912500D01*
G75*
G02*
X68687500Y-101150000I-237500J0D01*
G01*
G37*
%TD*%
%TO.C,R8*%
G36*
G01*
X131275000Y-65012500D02*
X131275000Y-65487500D01*
G75*
G02*
X131037500Y-65725000I-237500J0D01*
G01*
X130537500Y-65725000D01*
G75*
G02*
X130300000Y-65487500I0J237500D01*
G01*
X130300000Y-65012500D01*
G75*
G02*
X130537500Y-64775000I237500J0D01*
G01*
X131037500Y-64775000D01*
G75*
G02*
X131275000Y-65012500I0J-237500D01*
G01*
G37*
G36*
G01*
X133100000Y-65012500D02*
X133100000Y-65487500D01*
G75*
G02*
X132862500Y-65725000I-237500J0D01*
G01*
X132362500Y-65725000D01*
G75*
G02*
X132125000Y-65487500I0J237500D01*
G01*
X132125000Y-65012500D01*
G75*
G02*
X132362500Y-64775000I237500J0D01*
G01*
X132862500Y-64775000D01*
G75*
G02*
X133100000Y-65012500I0J-237500D01*
G01*
G37*
%TD*%
M02*
